<svg xmlns="http://www.w3.org/2000/svg" width="233.641" height="73.049" viewBox="0 0 233.641 73.049">
  <g id="Grupo_157906" data-name="Grupo 157906" transform="translate(-310.359 -2120.734)">
    <g id="Grupo_157673" data-name="Grupo 157673" transform="translate(310.359 2120.734)">
      <g id="Grupo_157672" data-name="Grupo 157672" transform="translate(0 0)">
        <path id="Trazado_191312" data-name="Trazado 191312" d="M88.751,61.259H79.716V89.328H71.783V61.259H62.911v-6.1h25.84Z" transform="translate(-62.911 -52.715)" fill="#fff"/>
        <path id="Trazado_191313" data-name="Trazado 191313" d="M96.4,88.427q-5.773,0-9.047-3.5a12.433,12.433,0,0,1-3.274-8.848v-.892a14.2,14.2,0,0,1,3.087-9.482q3.086-3.661,8.929-3.637,5.141,0,7.968,3.074t2.829,8.426v4.154H92.344l-.047.141a4.928,4.928,0,0,0,1.479,3.228,5.162,5.162,0,0,0,3.708,1.232,16.1,16.1,0,0,0,3.79-.375,23.829,23.829,0,0,0,3.462-1.2l1.9,4.835a14.541,14.541,0,0,1-4.412,2.019A20.355,20.355,0,0,1,96.4,88.427ZM96.1,68.173a3.272,3.272,0,0,0-2.8,1.209,6.065,6.065,0,0,0-1.044,3.273l.047.118H99.15v-.61a5.274,5.274,0,0,0-.692-2.98A2.653,2.653,0,0,0,96.1,68.173Z" transform="translate(-58.642 -51.321)" fill="#fff"/>
        <path id="Trazado_191314" data-name="Trazado 191314" d="M116.928,82.325a3.1,3.1,0,0,0,2.417-.88,3.668,3.668,0,0,0,.8-2.548h7.229l.047.142a8.338,8.338,0,0,1-2.876,6.77,11.083,11.083,0,0,1-7.615,2.617q-5.8,0-8.931-3.579a13.651,13.651,0,0,1-3.133-9.33v-.54a13.689,13.689,0,0,1,3.121-9.318q3.122-3.591,8.9-3.591a10.921,10.921,0,0,1,7.733,2.687,9.27,9.27,0,0,1,2.8,7.358l-.047.141h-7.229a4.92,4.92,0,0,0-.821-2.945,2.815,2.815,0,0,0-2.441-1.138,3.256,3.256,0,0,0-3.2,1.842,11.38,11.38,0,0,0-.9,4.964v.54a11.342,11.342,0,0,0,.9,5A3.307,3.307,0,0,0,116.928,82.325Z" transform="translate(-54.451 -51.321)" fill="#fff"/>
        <path id="Trazado_191315" data-name="Trazado 191315" d="M133.653,62.54l.3,3.568a9.194,9.194,0,0,1,3.075-2.969,7.951,7.951,0,0,1,4.084-1.067,7.159,7.159,0,0,1,5.832,2.534q2.1,2.534,2.1,8.05V87.934h-7.932v-15.3a5.821,5.821,0,0,0-.775-3.439,2.656,2.656,0,0,0-2.253-1.02,5.588,5.588,0,0,0-2.277.446,4.537,4.537,0,0,0-1.689,1.267V87.934h-7.909V62.54Z" transform="translate(-50.147 -51.321)" fill="#fff"/>
        <path id="Trazado_191316" data-name="Trazado 191316" d="M147.931,75a13.423,13.423,0,0,1,3.238-9.328q3.239-3.6,9.036-3.6,5.82,0,9.059,3.6A13.423,13.423,0,0,1,172.5,75v.493a13.412,13.412,0,0,1-3.238,9.342q-3.239,3.591-9.012,3.591-5.844,0-9.083-3.591a13.412,13.412,0,0,1-3.238-9.342Zm7.932.493a10.485,10.485,0,0,0,1,5.011,3.548,3.548,0,0,0,3.391,1.819,3.508,3.508,0,0,0,3.332-1.83,10.411,10.411,0,0,0,1.009-5V75a10.451,10.451,0,0,0-1.009-4.964,3.534,3.534,0,0,0-3.379-1.865,3.483,3.483,0,0,0-3.344,1.877,10.555,10.555,0,0,0-1,4.952Z" transform="translate(-45.767 -51.321)" fill="#fff"/>
        <path id="Trazado_191317" data-name="Trazado 191317" d="M179.539,89.738h-7.956V53.125h7.956Z" transform="translate(-40.998 -53.125)" fill="#fff"/>
        <path id="Trazado_191318" data-name="Trazado 191318" d="M181.368,75a13.424,13.424,0,0,1,3.24-9.328q3.239-3.6,9.035-3.6,5.82,0,9.059,3.6A13.424,13.424,0,0,1,205.942,75v.493a13.413,13.413,0,0,1-3.24,9.342q-3.239,3.591-9.012,3.591-5.844,0-9.082-3.591a13.413,13.413,0,0,1-3.24-9.342Zm7.933.493a10.486,10.486,0,0,0,1,5.011,3.548,3.548,0,0,0,3.391,1.819,3.51,3.51,0,0,0,3.333-1.83,10.425,10.425,0,0,0,1.009-5V75a10.466,10.466,0,0,0-1.009-4.964,3.535,3.535,0,0,0-3.38-1.865A3.483,3.483,0,0,0,190.3,70.05a10.556,10.556,0,0,0-1,4.952Z" transform="translate(-39.024 -51.321)" fill="#fff"/>
        <path id="Trazado_191319" data-name="Trazado 191319" d="M203.829,75.284q0-5.937,2.594-9.576a8.451,8.451,0,0,1,7.311-3.637,6.509,6.509,0,0,1,3.52.951,8.4,8.4,0,0,1,2.629,2.687l.516-3.169h6.995V87.653a9.4,9.4,0,0,1-3.439,7.779q-3.437,2.76-9.469,2.758a17,17,0,0,1-4.131-.54,23.071,23.071,0,0,1-4.13-1.455l1.36-5.868a18.858,18.858,0,0,0,3.274,1.115,15.831,15.831,0,0,0,3.579.364A5.875,5.875,0,0,0,218.2,90.8a3.888,3.888,0,0,0,1.233-3.192V85.634a6.885,6.885,0,0,1-5.751,2.793,8.537,8.537,0,0,1-7.275-3.473,15.011,15.011,0,0,1-2.582-9.177Zm7.909.493a10.545,10.545,0,0,0,.9,4.822,3.176,3.176,0,0,0,3.063,1.726,5.582,5.582,0,0,0,2.218-.4,3.638,3.638,0,0,0,1.514-1.2V70.05a3.959,3.959,0,0,0-1.5-1.4,4.636,4.636,0,0,0-2.183-.481,3.189,3.189,0,0,0-3.063,1.96,11.877,11.877,0,0,0-.951,5.151Z" transform="translate(-34.495 -51.321)" fill="#fff"/>
        <path id="Trazado_191320" data-name="Trazado 191320" d="M235.692,89.6h-7.956V64.2h7.956Zm-3.028-35.768h8.707l.047.142-6.595,6.1H227.83Z" transform="translate(-29.674 -52.983)" fill="#fff"/>
        <path id="Trazado_191321" data-name="Trazado 191321" d="M253.536,87.91a9.546,9.546,0,0,1-.763-1.806,13.809,13.809,0,0,1-.482-2.112,9.7,9.7,0,0,1-2.546,3.226,6.145,6.145,0,0,1-3.955,1.209,8.789,8.789,0,0,1-6.208-2.054,7.255,7.255,0,0,1-2.217-5.6,6.769,6.769,0,0,1,2.839-5.833q2.839-2.053,8.613-2.054h3.262V71.083a3.617,3.617,0,0,0-.775-2.489,3.02,3.02,0,0,0-2.371-.868,2.858,2.858,0,0,0-2.054.645,2.678,2.678,0,0,0-.668,2.007l-7.7-.024-.048-.141a6.624,6.624,0,0,1,2.9-5.809,12.982,12.982,0,0,1,8.085-2.335,11.832,11.832,0,0,1,7.64,2.347,8.108,8.108,0,0,1,2.921,6.712V80.7a19.51,19.51,0,0,0,.34,3.755,20.1,20.1,0,0,0,1.021,3.474Zm-5.586-5.139a4.832,4.832,0,0,0,2.57-.68,3.907,3.907,0,0,0,1.561-1.62V77.114h-3.193a3.586,3.586,0,0,0-2.746.916,3.29,3.29,0,0,0-.845,2.323,2.247,2.247,0,0,0,.739,1.748A2.737,2.737,0,0,0,247.949,82.771Z" transform="translate(-27.733 -51.321)" fill="#fff"/>
      </g>
    </g>
    <g id="Grupo_157674" data-name="Grupo 157674" transform="translate(350.152 2151.516)">
      <path id="Trazado_191322" data-name="Trazado 191322" d="M96.026,104.82a24.4,24.4,0,0,1,.693-5.791,26.048,26.048,0,0,1,1.956-5.389,24.405,24.405,0,0,1,3.008-4.674,21.935,21.935,0,0,1,3.826-3.684,17.333,17.333,0,0,1,4.438-2.421A13.944,13.944,0,0,1,114.784,82a7.378,7.378,0,0,1,4.521,1.22,4.025,4.025,0,0,1,1.62,3.407,6.818,6.818,0,0,1-.232,1.726,8.5,8.5,0,0,1-.673,1.745,12.153,12.153,0,0,1-1.03,1.661,7.707,7.707,0,0,1-1.3,1.389,3.279,3.279,0,0,1-1.893-.99,3.672,3.672,0,0,1-1.009-1.912,11.509,11.509,0,0,0,2.334-2.545,4.542,4.542,0,0,0,.863-2.418q0-1.853-2.313-1.851a5.5,5.5,0,0,0-2,.4,10.336,10.336,0,0,0-2.081,1.115,13.35,13.35,0,0,0-2.039,1.723,16.792,16.792,0,0,0-1.83,2.23q-5.847,8.412-5.846,17.2a11.031,11.031,0,0,0,.967,5,3.814,3.814,0,0,0,2.566,2.23,14.813,14.813,0,0,0,4.584-2.313,53.9,53.9,0,0,0,6.056-4.922,1.7,1.7,0,0,1,.5.883q-1.22,1.592-2.523,3.057t-2.587,2.68a28.015,28.015,0,0,1-2.523,2.135,14.39,14.39,0,0,1-2.292,1.424q-5.216,0-7.907-2.906T96.026,104.82Z" transform="translate(-96.026 -78.085)" fill="#92f4ff"/>
      <path id="Trazado_191323" data-name="Trazado 191323" d="M130.2,94.061a4.05,4.05,0,0,1,.988.147,5.265,5.265,0,0,1,1.03.379,4.288,4.288,0,0,1,.779.484c.21.167.316.322.316.461q-.844,1.768-1.556,3.554t-1.22,3.427a28.9,28.9,0,0,0-.779,3.071,13.42,13.42,0,0,0-.273,2.48,6.4,6.4,0,0,0,.252,1.956,1.885,1.885,0,0,0,.841,1.115,4.393,4.393,0,0,1-1.3.547,5.737,5.737,0,0,1-1.431.21q-2.269,0-2.27-3.112a19.742,19.742,0,0,1,1.6-6.561,26.386,26.386,0,0,1-4.165,6.616,13.156,13.156,0,0,1-2.292,2.114,5.424,5.424,0,0,1-2.123.985,2.936,2.936,0,0,1-2.523-1.416,6.253,6.253,0,0,1-.969-3.611,13.861,13.861,0,0,1,1.011-4.983,22.378,22.378,0,0,1,2.586-4.857,18.406,18.406,0,0,1,3.428-3.738,5.754,5.754,0,0,1,3.575-1.5,3.349,3.349,0,0,1,.946.5,7.2,7.2,0,0,1,1.009.881,6.786,6.786,0,0,1,.821,1.027,2.242,2.242,0,0,1,.379.9,7.608,7.608,0,0,0-3.47,1.635,17.072,17.072,0,0,0-3.238,3.337,19.527,19.527,0,0,0-2.376,4.173,10.855,10.855,0,0,0-.925,4.154.94.94,0,0,0,.588,1.007,5.832,5.832,0,0,0,2.819-2.081,40.282,40.282,0,0,0,3.869-5.656q.42-.759.946-1.682t1.072-1.936q.548-1.008,1.073-2.039T130.2,94.061Z" transform="translate(-92.18 -76.101)" fill="#92f4ff"/>
      <path id="Trazado_191324" data-name="Trazado 191324" d="M141.2,94.051a4.7,4.7,0,0,1,1.935.5,7.1,7.1,0,0,1,1.935,1.3q-.211-1.684-.525-3.176a20.85,20.85,0,0,0-.925-3.091,31.1,31.1,0,0,0-1.62-3.492q-1.009-1.891-2.523-4.332a2.774,2.774,0,0,1,.568-.882,7.24,7.24,0,0,1,1.008-.947,9.193,9.193,0,0,1,1.178-.779,3.568,3.568,0,0,1,1.157-.421A16.545,16.545,0,0,1,145.612,82a30.662,30.662,0,0,1,3.092,8.854,25.308,25.308,0,0,1,.441,4.583,21.892,21.892,0,0,1-.484,4.5,28.356,28.356,0,0,1-1.345,4.522,31.13,31.13,0,0,1-2,4.184,23.425,23.425,0,0,1-2.46,3.534,14.482,14.482,0,0,1-2.755,2.544,7.277,7.277,0,0,1-2.86,1.24,7.238,7.238,0,0,1-4.436-1.872,5.7,5.7,0,0,1-1.536-4.225,12.386,12.386,0,0,1,.441-3.113,22.306,22.306,0,0,1,1.178-3.343,25.775,25.775,0,0,1,1.726-3.24,21.493,21.493,0,0,1,2.1-2.838,16.731,16.731,0,0,1,2.249-2.145A5.8,5.8,0,0,1,141.2,94.051Zm-4.29,20.23a7.077,7.077,0,0,0,2.944-2.23,20.239,20.239,0,0,0,2.65-4.058,27.084,27.084,0,0,0,1.914-5,19.429,19.429,0,0,0,.735-5.153v-.882a1.412,1.412,0,0,0-.042-.338,7.909,7.909,0,0,0-2.145,1.431,23.961,23.961,0,0,0-2.271,2.334,26.9,26.9,0,0,0-2.145,2.882,35.367,35.367,0,0,0-1.808,3.112,20.22,20.22,0,0,0-1.262,2.985,8.336,8.336,0,0,0-.463,2.525A2.114,2.114,0,0,0,136.906,114.281Z" transform="translate(-88.919 -78.741)" fill="#92f4ff"/>
      <path id="Trazado_191325" data-name="Trazado 191325" d="M174.86,82.232q-3.533,6.181-7.4,12.027t-7.781,10.894q-3.911,5.047-7.655,9.083a60.229,60.229,0,0,1-6.982,6.561,2.112,2.112,0,0,1-1.031-.651,2.663,2.663,0,0,1-.735-1.282,18.447,18.447,0,0,0,3.386-2.734q1.828-1.81,3.827-4.206t4.08-5.257q2.08-2.861,4.058-5.889t3.807-6.078q1.828-3.048,3.321-5.823t2.587-5.111a38.153,38.153,0,0,0,1.64-3.975,4.392,4.392,0,0,1,1.283.252,11.251,11.251,0,0,1,1.535.632,9.975,9.975,0,0,1,1.346.8A1.92,1.92,0,0,1,174.86,82.232Z" transform="translate(-86.498 -78.529)" fill="#92f4ff"/>
      <path id="Trazado_191326" data-name="Trazado 191326" d="M167.355,104.82a24.393,24.393,0,0,1,.693-5.791A26.047,26.047,0,0,1,170,93.64a24.406,24.406,0,0,1,3.008-4.674,22.021,22.021,0,0,1,3.826-3.684,17.332,17.332,0,0,1,4.438-2.421A13.943,13.943,0,0,1,186.113,82a7.378,7.378,0,0,1,4.521,1.22,4.025,4.025,0,0,1,1.62,3.407,6.815,6.815,0,0,1-.231,1.726,8.644,8.644,0,0,1-.673,1.745,12.28,12.28,0,0,1-1.031,1.661,7.708,7.708,0,0,1-1.3,1.389,3.279,3.279,0,0,1-1.893-.99,3.681,3.681,0,0,1-1.009-1.912,11.48,11.48,0,0,0,2.334-2.545,4.532,4.532,0,0,0,.863-2.418q0-1.853-2.313-1.851a5.5,5.5,0,0,0-2,.4,10.369,10.369,0,0,0-2.081,1.115,13.409,13.409,0,0,0-2.039,1.723,16.887,16.887,0,0,0-1.83,2.23q-5.845,8.412-5.846,17.2a11.031,11.031,0,0,0,.967,5,3.814,3.814,0,0,0,2.566,2.23,14.813,14.813,0,0,0,4.584-2.313,53.894,53.894,0,0,0,6.056-4.922,1.7,1.7,0,0,1,.5.883q-1.22,1.592-2.523,3.057t-2.587,2.68a28.021,28.021,0,0,1-2.523,2.135,14.392,14.392,0,0,1-2.292,1.424q-5.215,0-7.907-2.906T167.355,104.82Z" transform="translate(-81.643 -78.085)" fill="#92f4ff"/>
      <path id="Trazado_191327" data-name="Trazado 191327" d="M201.529,94.061a4.049,4.049,0,0,1,.988.147,5.306,5.306,0,0,1,1.031.379,4.316,4.316,0,0,1,.777.484c.21.167.316.322.316.461q-.844,1.768-1.556,3.554t-1.22,3.427a29.189,29.189,0,0,0-.779,3.071,13.419,13.419,0,0,0-.273,2.48,6.436,6.436,0,0,0,.252,1.956,1.885,1.885,0,0,0,.841,1.115,4.379,4.379,0,0,1-1.3.547,5.729,5.729,0,0,1-1.431.21q-2.269,0-2.27-3.112a19.742,19.742,0,0,1,1.6-6.561,26.338,26.338,0,0,1-4.164,6.616,13.2,13.2,0,0,1-2.293,2.114,5.424,5.424,0,0,1-2.123.985,2.936,2.936,0,0,1-2.523-1.416,6.262,6.262,0,0,1-.969-3.611,13.861,13.861,0,0,1,1.011-4.983,22.377,22.377,0,0,1,2.586-4.857,18.405,18.405,0,0,1,3.428-3.738,5.754,5.754,0,0,1,3.575-1.5,3.35,3.35,0,0,1,.946.5,7.2,7.2,0,0,1,1.009.881,6.786,6.786,0,0,1,.821,1.027,2.242,2.242,0,0,1,.379.9,7.608,7.608,0,0,0-3.47,1.635,17.071,17.071,0,0,0-3.238,3.337,19.526,19.526,0,0,0-2.376,4.173,10.855,10.855,0,0,0-.925,4.154.94.94,0,0,0,.588,1.007,5.832,5.832,0,0,0,2.819-2.081,40.281,40.281,0,0,0,3.869-5.656q.42-.759.946-1.682t1.073-1.936q.546-1.008,1.072-2.039T201.529,94.061Z" transform="translate(-77.796 -76.101)" fill="#92f4ff"/>
      <path id="Trazado_191328" data-name="Trazado 191328" d="M227.756,98.3a2.8,2.8,0,0,0-1.64.821,20.042,20.042,0,0,0-2.081,2.106q-1.114,1.285-2.313,2.844t-2.313,3.1q-1.116,1.538-2.082,2.885t-1.64,2.147a4.4,4.4,0,0,1-1.6-1.114,4.324,4.324,0,0,1-.967-1.83,27.109,27.109,0,0,1,.589-2.707,25.523,25.523,0,0,1,.989-2.919,30.482,30.482,0,0,1,1.514-3.169,36.054,36.054,0,0,1,2.207-3.506,3.221,3.221,0,0,0-1.724.864,20.989,20.989,0,0,0-2.355,2.231q-1.262,1.37-2.608,3.075t-2.523,3.348q-1.556,2.19-2.586,3.832a7.414,7.414,0,0,1-1.494,1.937,4.5,4.5,0,0,1-1.513-1.723,8.854,8.854,0,0,1-.632-2.062,19.272,19.272,0,0,1,.316-2.523,25.306,25.306,0,0,1,.777-3.111,40.182,40.182,0,0,1,2.5-6.1q1.534-3.026,2.966-5.552a7.346,7.346,0,0,1,2.123.8,9.976,9.976,0,0,1,2,1.6,12.986,12.986,0,0,1-1.3,2.755q-.881,1.451-1.851,3.049a36.528,36.528,0,0,0-1.765,3.281,11.894,11.894,0,0,0-1.051,3.408q1.175-1.684,2.8-3.871t3.323-4.12a27.228,27.228,0,0,1,3.385-3.282,5.08,5.08,0,0,1,3.028-1.345,4.008,4.008,0,0,1,1.094.168,6.429,6.429,0,0,1,1.095.419,7.678,7.678,0,0,1,.84.483q.337.233.379.358a10.814,10.814,0,0,1-.988,2.293q-.779,1.451-1.661,3.05t-1.641,3.091a8.271,8.271,0,0,0-.882,2.376q2.06-2.817,3.868-5.109a50.146,50.146,0,0,1,3.407-3.933A17.793,17.793,0,0,1,228.7,94.11a4.809,4.809,0,0,1,2.586-.883,3.017,3.017,0,0,1,1.578.442,2.35,2.35,0,0,1,1.03,1.283,20.7,20.7,0,0,1-1.24,3.027q-.862,1.768-1.746,3.723t-1.577,3.848a10.029,10.029,0,0,0-.695,3.407,1.826,1.826,0,0,0,.252,1.157.924.924,0,0,0,.715.273,2.379,2.379,0,0,0,.947-.189,1.9,1.9,0,0,1,.652-.19.634.634,0,0,1,.294.422,2.847,2.847,0,0,1,.041.461,9.774,9.774,0,0,1-1.724,1.115,4.357,4.357,0,0,1-1.977.441,3.632,3.632,0,0,1-1.661-.335,2.978,2.978,0,0,1-1.073-.924,3.617,3.617,0,0,1-.588-1.345,7.464,7.464,0,0,1-.169-1.637,10.872,10.872,0,0,1,.379-2.835,22.323,22.323,0,0,1,.9-2.688q.525-1.282,1.115-2.394T227.756,98.3Z" transform="translate(-74.458 -76.236)" fill="#92f4ff"/>
    </g>
  </g>
</svg>
