<svg xmlns="http://www.w3.org/2000/svg" width="216.024" height="200.834" viewBox="0 0 216.024 200.834">
  <g id="Grupo_157686" data-name="Grupo 157686" transform="translate(-183.2 -279.939)">
    <g id="Grupo_157680" data-name="Grupo 157680">
      <path id="Trazado_191329" data-name="Trazado 191329" d="M256.555,375.952s14.9.771,16.184,6.422-4.11,25.69,5.909,31.085,39.047,10.531,56.259,5.394,23.635-25.432,38.534-23.633,17.982,7.191,16.956,14.385-2.055,12.843-2.569,15.414-18.5,10.018-29.8,19.78-60.628,36.48-85.8,35.967-48.039-1.542-66.021-8.221-19.011-10.791-20.038-14.387-1.542-14.9-2.313-17.726,1.542-7.45,3.34-8.477c0,0-8.734-25.175,19.781-37.507A475.066,475.066,0,0,1,256.555,375.952Z" fill="#f19899"/>
      <path id="Trazado_191330" data-name="Trazado 191330" d="M187.154,433.064c.628.837.732,1.861,1.28,2.728,1.521,2.407,3.8,3.17,6.441,3.573,1.879.288,3,2.263,4.457,3.3,1.815,1.293,4.2,2.267,6.46,1.639,1.159-.321,2.451-1.271,3.727-1.267.5,0,.924.5,1.168.888a9.036,9.036,0,0,0,4.363,3.914c2.939,1.22,6.544,1.743,9.129-.579,1.407-1.265,2.559-2.553,4.578-2.212a3.572,3.572,0,0,1,1.823,1.47c1.18.691,2.179,1.73,3.588,1.943a14.256,14.256,0,0,0,6.4-.5,5.911,5.911,0,0,0,4.189-3.493c.37-.938.828-2.695,1.839-3.208,2.115-1.073,3.53,1.386,4.382,2.958a28.33,28.33,0,0,0,3.551,5.38c3.269,2.093,7.9,2.2,10.105-1.588.827-1.415,1.146-5.636,3.228-5.979a2.658,2.658,0,0,1,2.544,1.158c1.659,1.919,3.4,3.912,5.927,4.7a9.338,9.338,0,0,0,7.156-.485c2.052-1.151,2.087-2.837,3.382-4.506,2.047-2.638,4.5-1.327,6.654.419,3.468,2.81,7.325,3.094,9.985-.9,1.073-1.613,1.953-5.659,4.236-5.994,1.85-.271,3.108,1.877,4.84,2.553.411.067.835.131,1.268.188h0a.443.443,0,0,1,.2.029,11.571,11.571,0,0,0,5.713-.374c3.616-1.453,4.24-4.6,6.146-7.564,2.91-4.531,8.26-.77,12.506-1.245,3.983-.444,6.9-3.015,8.943-6.338,1.016-1.658,1.767-3.745,3.58-4.689,2.415-1.255,5.639.4,8.259-.361,2.083-.6,4.243-1.435,5.526-3.188a7.365,7.365,0,0,1,.38-1.031,47.414,47.414,0,0,1,2.341-4.2c1.467-2.466,2.952-4.359,5.841-5.173,1.614-.455,3.278-.63,4.9-1.033,1.827-.454,2.542-1.649,3.644-3.024A4.828,4.828,0,0,1,386.3,399.1c-2.668-1.811-6.78-3.145-12.864-3.878-14.9-1.8-21.321,18.5-38.534,23.633-7.589,2.266-17.475,2.531-27.016,1.661a16.282,16.282,0,0,1-1.121,2.261,7.578,7.578,0,0,1-4.87,3.821c-2.938.629-6.043.482-8.867,1.6-6.288,2.488-12.015,6.015-18.766,7.182-3.2.554-6.486.125-9.571,1.243-2.8,1.018-5.473,2.4-8.534,2.2-2.146-.141-3.8-1.45-5.395-2.751-.969-.791-2.257-1.989-3.6-1.987a9.164,9.164,0,0,0-4.665,1.629c-5.1,2.972-11.715,2.747-17.447,2.5a142.251,142.251,0,0,1-22.458-3.1c-5.106-1.044-10.439-2.611-15.724-2.939a3.875,3.875,0,0,0-.376.334A1.83,1.83,0,0,1,187.154,433.064Z" fill="#f19899" opacity="0.6" style="mix-blend-mode: multiply;isolation: isolate"/>
      <path id="Trazado_191331" data-name="Trazado 191331" d="M373.441,395.22c-14.9-1.8-21.321,18.5-38.534,23.633-16.277,4.858-43.113.527-54.455-4.521-3.532,1.461-7.189,2.763-10.082,5.153-1.807,1.494-3.567,3.365-3.548,5.871a14.586,14.586,0,0,0,1.733,6.345c1.648,3.3,4.056,6.272,5.577,9.615.914,2.008,1.462,4.586-.1,6.453-1.269,1.519-4.77,3.556-3.078,5.924.693.969,1.765,1.527,2.3,2.608a6.4,6.4,0,0,1,.372,2.864c-.035,2.689,1.047,5.265.95,7.925-.167,4.59-4.683,6.375-8.5,7.613a57.808,57.808,0,0,1-17.295,2.89,162.933,162.933,0,0,1-37.65-4.255c-3.036-.685-6.162-1.474-9.228-2.475,1.316.542,2.741,1.1,4.3,1.682,17.982,6.679,40.845,7.7,66.021,8.221s74.5-26.2,85.8-35.967,29.286-17.211,29.8-19.78,1.542-8.22,2.569-15.414S388.341,397.017,373.441,395.22Z" fill="#f19899" opacity="0.6" style="mix-blend-mode: multiply;isolation: isolate"/>
      <path id="Trazado_191332" data-name="Trazado 191332" d="M373.441,395.22c-.373-.046-.735-.067-1.1-.085a7.752,7.752,0,0,1-.735,5.212c-1.353,2.749-3.305,5.286-4.467,8.117-1.187,2.887,1.281,2.205,3.216,1.727a7.071,7.071,0,0,1,3.628-.051c2.266.534,2.556,2.7,2,4.672-1.28,4.491-.857,8.889-1.567,13.425a13.3,13.3,0,0,1-3.7,7.637c8.7-5.274,16.773-9.146,17.115-10.855.514-2.571,1.542-8.22,2.569-15.414S388.341,397.017,373.441,395.22Z" fill="#f19899" opacity="0.5" style="mix-blend-mode: multiply;isolation: isolate"/>
      <path id="Trazado_191333" data-name="Trazado 191333" d="M203.121,431.955c8.734-5.395,17.213-1.285,30.57,0s23.635-.024,41.617-2.709c7.442-1.111,14.616-5.592,20.475-10.46-7.25-1.416-13.468-3.353-17.135-5.327-10.019-5.4-4.624-25.434-5.909-31.085s-16.184-6.422-16.184-6.422a475.066,475.066,0,0,0-49.581,18.5c-28.515,12.332-19.781,37.507-19.781,37.507A14.413,14.413,0,0,0,203.121,431.955Z" fill="#f19899"/>
      <path id="Trazado_191334" data-name="Trazado 191334" d="M203.121,431.955c8.734-5.395,17.213-1.285,30.57,0s23.635-.024,41.617-2.709c7.442-1.111,14.616-5.592,20.475-10.46-7.25-1.416-13.468-3.353-17.135-5.327-10.019-5.4-4.624-25.434-5.909-31.085s-16.184-6.422-16.184-6.422a475.066,475.066,0,0,0-49.581,18.5c-28.515,12.332-19.781,37.507-19.781,37.507A14.413,14.413,0,0,0,203.121,431.955Z" fill="#f19899" style="mix-blend-mode: multiply;isolation: isolate"/>
      <path id="Trazado_191335" data-name="Trazado 191335" d="M203.092,424.432a8.054,8.054,0,0,1-1.108-5.161,2.984,2.984,0,0,1,.841-1.551,7.39,7.39,0,0,0,2.067-3.936c.41-1.52,1.427-1.982,2.723-2.733,1.193-.691,1.357-1.942,1.8-3.118a1.462,1.462,0,0,1,.618-.738c1.5-.609,2.979.207,4.331-1.268,1.4-1.528,2.144-3.412,3.827-4.7,1.658-1.271,3.846-1.529,5.583-2.656,1.864-1.211,3.3-2.717,5.5-3.315,2.746-.744,5.878-1.106,8.439-2.336a55.439,55.439,0,0,1,6.348-2.866c2.31-.768,3.879-.37,6.21.042a14.565,14.565,0,0,0,9-1.321c2.571-1.188,6.35-2.432,7.358-5.372a6.631,6.631,0,0,0-1.067-6,47.889,47.889,0,0,0-9.009-1.448,475.066,475.066,0,0,0-49.581,18.5c-28.515,12.332-19.781,37.507-19.781,37.507a14.413,14.413,0,0,0,15.928,0,17.9,17.9,0,0,1,3.86-1.8A37.232,37.232,0,0,1,203.092,424.432Z" fill="#f19899" style="mix-blend-mode: multiply;isolation: isolate"/>
      <path id="Trazado_191336" data-name="Trazado 191336" d="M278.648,413.459c-6.757-3.639-6.5-13.933-6.015-21.986-.812,3.417-1.775,6.744-1.8,10.349-.024,3.26.414,7.655-1.582,10.5s-8.1-4.343-11.26-3.936c-11.026,1.42-29.824,7.638-39.761,12.816-2.889,1.505,5.272,6.553,3.09,8.906,3.679.611,7.731,1.4,12.372,1.845,13.358,1.285,23.635-.024,41.617-2.709,7.442-1.111,14.616-5.592,20.475-10.46C288.533,417.37,282.315,415.433,278.648,413.459Z" fill="#ee798a" style="mix-blend-mode: multiply;isolation: isolate"/>
      <path id="Trazado_191337" data-name="Trazado 191337" d="M372.956,396.709c-.2-1.559-1.468-2.125-2.827-2.762-1.15-.541-1.923-1.591-2.97-2.3a8.072,8.072,0,0,0-2.689-1.091,12.074,12.074,0,0,0-6.3-.04c-2.5.838-4.334,2.806-6.856,3.641-2.04.676-4.46.42-6.32,1.566-1.03.635-1.512,1.837-2.6,2.481a27.456,27.456,0,0,0-2.556,1.335,2.573,2.573,0,0,0-.9,1.759,14.328,14.328,0,0,0-.154,4.4c.1,2.03,1.256,3.222,2.537,4.646a25.2,25.2,0,0,0,5.505,4.16c2.184,1.35,3.874,2.83,6.32,3.669,4.451,1.528,8.967.225,11.537-3.772,1.316-2.044,2.356-4.329,3.577-6.442,1.2-2.077,2.159-4.278,3.179-6.445C372.1,400.106,373.169,398.366,372.956,396.709Z" fill="#e8e7dc"/>
      <path id="Trazado_191338" data-name="Trazado 191338" d="M372.956,396.709a2.485,2.485,0,0,0-.693-1.457,1.784,1.784,0,0,1,.076.944c-.362,1.655-2.374,1.932-3.762,2.324-3.209.9-6.16,2.52-9.444,3.221a41.442,41.442,0,0,0-6.714,1.722c-1.7.666-2.441-1.289-3.75-1.885-1.837-.836-3.57-.67-5.5-.7-1.388-.025-2.866-.215-3.606-1.072a2.727,2.727,0,0,0-.628,1.492,14.328,14.328,0,0,0-.154,4.4c.1,2.03,1.256,3.222,2.537,4.646a25.2,25.2,0,0,0,5.505,4.16c2.184,1.35,3.874,2.83,6.32,3.669,4.451,1.528,8.967.225,11.537-3.772,1.316-2.044,2.356-4.329,3.577-6.442,1.2-2.077,2.159-4.278,3.179-6.445C372.1,400.106,373.169,398.366,372.956,396.709Z" fill="#f5f3e8"/>
      <path id="Trazado_191339" data-name="Trazado 191339" d="M349.913,411.6c.189-2.234,1.425-5.843.53-7.993a5.357,5.357,0,0,0-1.587-1.93c-.062-.035-.123-.07-.187-.1-1.837-.836-3.57-.67-5.5-.7-1.388-.025-2.866-.215-3.606-1.072a2.727,2.727,0,0,0-.628,1.492,14.328,14.328,0,0,0-.154,4.4c.1,2.03,1.256,3.222,2.537,4.646a25.2,25.2,0,0,0,5.505,4.16c1.36.841,2.529,1.733,3.808,2.486C349.641,415.543,349.7,414.128,349.913,411.6Z" fill="#cbcac2" style="mix-blend-mode: multiply;isolation: isolate"/>
      <path id="Trazado_191340" data-name="Trazado 191340" d="M266.672,380.234c-.219-1.414-.532-2.883-.65-4.313-.1-1.15.179-2.287-.209-3.4-.66-1.888-2.435-2.44-4.175-2.924a51.187,51.187,0,0,1-7.248-2.529,13.044,13.044,0,0,0-6.448-1.43,27.456,27.456,0,0,0-7.826,1.4,60.969,60.969,0,0,1-7.811,2.3c-1.812.426-2.33,1.908-2.535,3.523a2,2,0,0,0,.282,1.332,8.354,8.354,0,0,0,.495,1.075,13.009,13.009,0,0,1,.881,4.184c.694,4.306,3.4,7.145,7.308,8.882,2.276,1.011,4.539-.434,6.84-.416,1.179.01,2.1.821,3.209,1.028a24.289,24.289,0,0,0,4.378.688c1.826.015,4.133-1.222,5.75-1.948,2.281-1.027,4.807-1.782,6.889-3.2C267.06,383.637,266.867,381.5,266.672,380.234Z" fill="#eae8de"/>
      <path id="Trazado_191341" data-name="Trazado 191341" d="M266.672,380.234c-.219-1.414-.532-2.883-.65-4.313-.1-1.15.179-2.287-.209-3.4a3.578,3.578,0,0,0-1.576-1.916c-.956,2.12-4.794.253-6.863,1.888-1.233.973-2.012,2.284-3.589,2.729-1.5.423-4.138,1.614-5.706,1.028a15.985,15.985,0,0,1-2.518-1.619,8.679,8.679,0,0,0-5.343-.981,12.031,12.031,0,0,1-5.046-.371c-1.35-.429-4.007-1.539-4.289-3.178a4.569,4.569,0,0,0-1.113,2.758,2,2,0,0,0,.282,1.332,8.354,8.354,0,0,0,.495,1.075,13.009,13.009,0,0,1,.881,4.184c.694,4.306,3.4,7.145,7.308,8.882,2.276,1.011,4.539-.434,6.84-.416,1.179.01,2.1.821,3.209,1.028a24.289,24.289,0,0,0,4.378.688c1.826.015,4.133-1.222,5.75-1.948,2.281-1.027,4.807-1.782,6.889-3.2C267.06,383.637,266.867,381.5,266.672,380.234Z" fill="#deddd3"/>
      <path id="Trazado_191342" data-name="Trazado 191342" d="M247.452,379.592c.029-1.718.008-3.3-1.033-4.364a8.331,8.331,0,0,0-.858-.593c-.162-.1-.326-.176-.488-.256-.057-.021-.107-.044-.165-.065a.4.4,0,0,1-.085-.052,7.972,7.972,0,0,0-2.916-.647c-3.581.333-10.691.674-11.484-2.917a5.591,5.591,0,0,0-.653,2.165,2,2,0,0,0,.282,1.332,8.354,8.354,0,0,0,.495,1.075,13.009,13.009,0,0,1,.881,4.184c.694,4.306,3.4,7.145,7.308,8.882,2.276,1.011,4.539-.434,6.84-.416a5.5,5.5,0,0,1,2.15.671c-.034-.06-.072-.116-.1-.183-.4-.916.385-2.125.469-3.018C248.277,383.471,247.419,381.553,247.452,379.592Z" fill="#cbcac2" opacity="0.5" style="mix-blend-mode: multiply;isolation: isolate"/>
      <path id="Trazado_191343" data-name="Trazado 191343" d="M247.164,382.843c-.532-2.211.3-4.765-.685-6.8-.629-1.3-2.341-1.814-3.632-2.064-2.944-.572-5.831.033-8.76-.974-1.9-.651-3.371-2.051-5.475-2.153a7.452,7.452,0,0,0-3.965.958c-.477.155-.95.322-1.4.48-2.683.944-5,2.509-7.517,3.791-1.425.725-2.83,1.624-3.315,3.192a1.6,1.6,0,0,0,.363,1.36,4.947,4.947,0,0,0,.765.692,5.38,5.38,0,0,1,1.238,2.937c1.023,4.14,3.159,8.48,7.184,10.464a6.414,6.414,0,0,0,5.383.313c1.176-.414,2.256-.992,3.465-1.355,1.511-.455,3.139-.536,4.683-.852,2.239-.457,4.057-1.731,6.141-2.55,1.758-.692,4.129-1.014,5.205-2.8A6.344,6.344,0,0,0,247.164,382.843Z" fill="#eae8de"/>
      <path id="Trazado_191344" data-name="Trazado 191344" d="M247.164,382.843c-.532-2.211.3-4.765-.685-6.8a2.458,2.458,0,0,0-.218-.349,2.061,2.061,0,0,1-1.206,2.587,4.491,4.491,0,0,1-1.532.116,32.311,32.311,0,0,0-4.241.508,16.247,16.247,0,0,0-4.116,1.717,29.12,29.12,0,0,1-5.836,2.831,36.121,36.121,0,0,1-6.269.958c-1.486.173-3.337-1.1-4.5-1.858a29.959,29.959,0,0,0-5.55-2.694c-.219-.088-.431-.178-.635-.275a1.926,1.926,0,0,0,.4,1.049,4.947,4.947,0,0,0,.765.692,5.38,5.38,0,0,1,1.238,2.937c1.023,4.14,3.159,8.48,7.184,10.464a6.414,6.414,0,0,0,5.383.313c1.176-.414,2.256-.992,3.465-1.355,1.511-.455,3.139-.536,4.683-.852,2.239-.457,4.057-1.731,6.141-2.55,1.758-.692,4.129-1.014,5.205-2.8A6.344,6.344,0,0,0,247.164,382.843Z" fill="#deddd3"/>
      <path id="Trazado_191345" data-name="Trazado 191345" d="M226.679,393.923c-.028-.552-.009-1.109-.049-1.659-.088-1.178-1-2.067-1.037-3.35-.05-1.72-.112-3.245-2.08-4-.458-.176-.9-.36-1.339-.562a11.547,11.547,0,0,1-3.616-1.8,29.959,29.959,0,0,0-5.55-2.694c-.219-.088-.431-.178-.635-.275a1.926,1.926,0,0,0,.4,1.049,4.947,4.947,0,0,0,.765.692,5.38,5.38,0,0,1,1.238,2.937c1.023,4.14,3.159,8.48,7.184,10.464a6.347,6.347,0,0,0,4.913.458A6.289,6.289,0,0,1,226.679,393.923Z" fill="#cbcac2" opacity="0.5" style="mix-blend-mode: multiply;isolation: isolate"/>
      <path id="Trazado_191346" data-name="Trazado 191346" d="M225.044,387.97c0-1.752-.47-2.352-2.157-3.112a9.676,9.676,0,0,1-3.459-2.007,16.881,16.881,0,0,0-2.943-2.741,8.437,8.437,0,0,0-5.83-1.4,9.461,9.461,0,0,0-4.366,2.383c-2.984,1.135-7.712,2.2-6.193,6.32a3.694,3.694,0,0,0,1.7,1.719,5.119,5.119,0,0,1,2.544,3.291c.73,2.254.771,4.651,1.66,6.874.68,1.7,1.334,3.794,2.746,5.019,1.081.939,2.831,2.156,4.353,1.315,1.923-1.063,2.388-2.339,3.628-4.028,1.712-2.329,4.425-2.332,6.8-3.551a4.511,4.511,0,0,0,2.692-3.66C226.3,392.138,225.05,390.238,225.044,387.97Z" fill="#eae8de"/>
      <path id="Trazado_191347" data-name="Trazado 191347" d="M225.044,387.97c0-1.752-.47-2.352-2.157-3.112-.237-.108-.458-.2-.674-.3-.027.6-.408,1.141-1.393,1.526-1.177.461-2.442.542-3.62,1.078a11.115,11.115,0,0,1-2.16.8c-2.074.459-4.282.145-6.2,1.147-.986.517-1.938.852-2.942.162-.633-.434-1.188-1.026-1.847-1.416-1.165-.69-2.735-.588-3.86-1.317a3.809,3.809,0,0,1-.359-.285,4.482,4.482,0,0,0,.262,1.147,3.694,3.694,0,0,0,1.7,1.719,5.119,5.119,0,0,1,2.544,3.291c.73,2.254.771,4.651,1.66,6.874.68,1.7,1.334,3.794,2.746,5.019,1.081.939,2.831,2.156,4.353,1.315,1.923-1.063,2.388-2.339,3.628-4.028,1.712-2.329,4.425-2.332,6.8-3.551a4.511,4.511,0,0,0,2.692-3.66C226.3,392.138,225.05,390.238,225.044,387.97Z" fill="#deddd3"/>
      <path id="Trazado_191348" data-name="Trazado 191348" d="M208.107,399.225c.07-3.275.19-6.708-1.38-9.594a2.142,2.142,0,0,1-.827-.35c-.633-.434-1.188-1.026-1.847-1.416-1.165-.69-2.735-.588-3.86-1.317a3.809,3.809,0,0,1-.359-.285,4.482,4.482,0,0,0,.262,1.147,3.694,3.694,0,0,0,1.7,1.719,5.119,5.119,0,0,1,2.544,3.291c.73,2.254.771,4.651,1.66,6.874.68,1.7,1.334,3.794,2.746,5.019.19.165.4.339.627.508A9.36,9.36,0,0,1,208.107,399.225Z" fill="#cbcac2" opacity="0.5" style="mix-blend-mode: multiply;isolation: isolate"/>
      <path id="Trazado_191349" data-name="Trazado 191349" d="M208.1,407.475a31.09,31.09,0,0,1-.43-7.056c-.058-3.3.437-7.155-.851-10.293-1.087-2.65-5.3-4.581-8.059-4.205a9.927,9.927,0,0,0-2.779,1.164c-2.386,1.131-5.877,2.487-6.075,5.588-.226,3.543,2.015,7.239,3.678,10.214a20.83,20.83,0,0,0,7.282,8.05c2.247,1.347,5.107,1.425,7.011-.532C208.658,409.61,208.336,408.406,208.1,407.475Z" fill="#eae8de"/>
      <path id="Trazado_191350" data-name="Trazado 191350" d="M208.1,407.475a31.09,31.09,0,0,1-.43-7.056c-.058-3.3.437-7.155-.851-10.293a5.293,5.293,0,0,0-1.33-1.827,1.51,1.51,0,0,1-.705,1.583,11.641,11.641,0,0,1-1.887.562c-1.491.444-2.184,1.609-3.063,2.72a3,3,0,0,1-2.434,1.3c-1.073.087-2.119-.646-3.217-.61a10.858,10.858,0,0,1-2.522.014,4.9,4.9,0,0,1-1.765-.735c-.02,3.4,2.1,6.911,3.688,9.759a20.83,20.83,0,0,0,7.282,8.05c2.247,1.347,5.107,1.425,7.011-.532C208.658,409.61,208.336,408.406,208.1,407.475Z" fill="#deddd3"/>
      <path id="Trazado_191351" data-name="Trazado 191351" d="M199.975,403.312c-.628-1.745-.969-3.551-1.533-5.311-.515-1.6-.918-3.005-2.852-3.589a9.894,9.894,0,0,1-1.439-.561,10.386,10.386,0,0,1-2.485.012,4.9,4.9,0,0,1-1.765-.735c-.02,3.4,2.1,6.911,3.688,9.759a20.83,20.83,0,0,0,7.282,8.05,6.791,6.791,0,0,0,2.847.951C203,408.866,201.031,406.246,199.975,403.312Z" fill="#cbcac2" opacity="0.5" style="mix-blend-mode: multiply;isolation: isolate"/>
      <path id="Trazado_191352" data-name="Trazado 191352" d="M203.924,413.1a17.5,17.5,0,0,0-2.191-4.636,30.144,30.144,0,0,1-2.633-5.778c-.7-2.158-.761-4.627-1.97-6.592-1.679-2.729-4.545-2.38-7.347-2.686-3.147-.34-4.213,2.584-5.142,4.995a12.566,12.566,0,0,0-1,4.857c.028,1.306.92,2.542,1.527,3.639a18.061,18.061,0,0,0,3.509,3.978,31.956,31.956,0,0,0,4.332,3.567c2.48,1.595,5.381,3.162,8.4,3.174C203.921,417.63,204.366,415.019,203.924,413.1Z" fill="#eae8de"/>
      <path id="Trazado_191353" data-name="Trazado 191353" d="M203.924,413.1a17.5,17.5,0,0,0-2.191-4.636,30.144,30.144,0,0,1-2.633-5.778c-.7-2.158-.761-4.627-1.97-6.592a5.024,5.024,0,0,0-.766-.963,2.66,2.66,0,0,1-.531,3.111c-1.616,1.387-1.7,2.877-2.7,4.529a2.27,2.27,0,0,1-1.757,1.089c-.775-.053-1.408-.323-2.167-.436-1.641-.247-2.237,1.054-3.247,1.86a2.441,2.441,0,0,1-1.4.547c.21.367.427.725.616,1.068a18.061,18.061,0,0,0,3.509,3.978,31.956,31.956,0,0,0,4.332,3.567c2.48,1.595,5.381,3.162,8.4,3.174C203.921,417.63,204.366,415.019,203.924,413.1Z" fill="#deddd3"/>
      <path id="Trazado_191354" data-name="Trazado 191354" d="M200.915,416.3c-2.149-1.225-4.14-2.807-6.23-4.147a7.438,7.438,0,0,1-3.14-4.068c-.6-1.7-1.936-5.665-4.82-3.53a8.383,8.383,0,0,1-.766.73c-.066.052-.133.092-.2.136a7.948,7.948,0,0,0-.836,1.047c.084.143.173.292.249.432a18.061,18.061,0,0,0,3.509,3.978,31.956,31.956,0,0,0,4.332,3.567c2.48,1.595,5.381,3.162,8.4,3.174a2.35,2.35,0,0,0,2.059-1A3.248,3.248,0,0,1,200.915,416.3Z" fill="#cbcac2" opacity="0.5" style="mix-blend-mode: multiply;isolation: isolate"/>
      <path id="Trazado_191355" data-name="Trazado 191355" d="M197.211,419.913a12.355,12.355,0,0,0-.874-4.575c-1.237-2.472-3.45-2.938-4.588-5.508-1.046-2.359-3.175-7.418-6.052-4.615-3.384,3.293-2.51,10.594-2.02,14.5a40.993,40.993,0,0,0,3.488,12.2c1.187,2.555,3.622,6.4,6.861,6.558,3.415.172,3.812-2.862,3.795-5.565C197.794,428.6,197.6,424.209,197.211,419.913Z" fill="#f5f3e8"/>
      <path id="Trazado_191356" data-name="Trazado 191356" d="M197.211,419.913a12.355,12.355,0,0,0-.874-4.575,7.092,7.092,0,0,0-1.583-2.044c-5,.524-3.324,7.44-2.888,10.924a73.456,73.456,0,0,0,2.449,10.6c.435,1.586.384,2.838-1.14,3.526a4.255,4.255,0,0,0,.851.137c3.415.172,3.812-2.862,3.795-5.565C197.794,428.6,197.6,424.209,197.211,419.913Z" fill="#deddd3"/>
      <path id="Trazado_191357" data-name="Trazado 191357" d="M208.561,430.641c-.091-.559-.17-1.119-.224-1.682-.342-3.566.826-8.709-2.9-10.935-1.657-.989-3.593-1.392-5.28-2.341-1.373-.772-2.653-2.6-4.319-2.7-2.825-.182-4.111,1.787-4.084,4.35a64.213,64.213,0,0,0,1.992,15.162c.941,3.659,2.849,8.487,6.68,9.979a10.878,10.878,0,0,0,2.967,1.508c1.275.407,2.695.573,3.7-.457a8.59,8.59,0,0,0,2.322-5.4C209.619,435.587,208.967,433.125,208.561,430.641Z" fill="#f5f3e8"/>
      <path id="Trazado_191358" data-name="Trazado 191358" d="M207.071,419.58a23.472,23.472,0,0,1,.308,5.114,44.6,44.6,0,0,0,2.026,13.437v-.009c.213-2.535-.439-5-.845-7.481-.091-.559-.17-1.119-.224-1.682C208.06,426.07,208.771,422.148,207.071,419.58Z" fill="#deddd3"/>
      <path id="Trazado_191359" data-name="Trazado 191359" d="M226.22,425.648c-.1-1.31.667-1.613-.212-2.862-1.069-1.52-4.039-.947-5.856-1.242-2.082-.338-4.041-1.076-6.112-1.419-1.273-.212-3.412-1.251-4.7-.7-2.222.95-1.436,2.291-1.4,5.238a78.734,78.734,0,0,0,2.313,16.859,9.624,9.624,0,0,0,6.816,7.149c4.681,1.493,8.964-2.921,10.008-7.224C228.273,436.506,226.616,430.639,226.22,425.648Z" fill="#f5f3e8"/>
      <path id="Trazado_191360" data-name="Trazado 191360" d="M225.9,423.638c.065,2.194,0,4.288.272,6.487.363,2.962,1.014,6.122,1.246,9.243.425-4.455-.851-9.414-1.193-13.72-.1-1.31.667-1.613-.212-2.862a1.875,1.875,0,0,0-.445-.444A2.908,2.908,0,0,1,225.9,423.638Z" fill="#deddd3"/>
      <path id="Trazado_191361" data-name="Trazado 191361" d="M244.187,423.323a8.313,8.313,0,0,0-2.732.4,17.606,17.606,0,0,1-4.114.192,32.142,32.142,0,0,1-7.177-1.329c-1.4-.353-2.711-.4-3.589.9a3.912,3.912,0,0,0-.278,2.752,72.2,72.2,0,0,0,.556,8.3,32.32,32.32,0,0,0,1.584,8.479c1.612,4.08,5.871,5.818,10.018,5.785,6.154-.052,7.892-7.672,8.36-12.507a66.219,66.219,0,0,0,.271-7.413C247.053,426.834,246.74,423.708,244.187,423.323Z" fill="#f5f3e8"/>
      <path id="Trazado_191362" data-name="Trazado 191362" d="M349.515,402.761a4.194,4.194,0,0,0-3.779-2.22,23.871,23.871,0,0,1-6.585-1.035,10.939,10.939,0,0,0-6.557-.3c-2.53.741-4.145,2.5-6.38,3.792-1.037.6-2.693.45-3.848.633a6.493,6.493,0,0,0-2.474.89,3.876,3.876,0,0,0-1.5,1.692,4.2,4.2,0,0,0-.532,3.838,53.2,53.2,0,0,0,2.381,7.6,23.623,23.623,0,0,0,9.623,10.6,11.239,11.239,0,0,0,12.12-.1c4.011-2.632,5.62-7.432,6.532-11.934a66.062,66.062,0,0,0,1.134-7.126c.126-1.383.18-2.74.367-4.124A3.294,3.294,0,0,0,349.515,402.761Z" fill="#e8e7dc"/>
      <path id="Trazado_191363" data-name="Trazado 191363" d="M349.515,402.761a4.215,4.215,0,0,0-2-1.853,2.609,2.609,0,0,1,.466,2.806c-.445,1.31-2.053,1.659-3.229,1.85-2.482.4-4.494.368-6.4,2.343-2.21,2.289-5.839,5.219-9.322,4.7a7.508,7.508,0,0,1-3.781-1.7c-2.023-1.681-5.072-2.7-7.505-1.374.032.169.07.342.117.52a53.2,53.2,0,0,0,2.381,7.6,23.623,23.623,0,0,0,9.623,10.6,11.239,11.239,0,0,0,12.12-.1c4.011-2.632,5.62-7.432,6.532-11.934a66.062,66.062,0,0,0,1.134-7.126c.126-1.383.18-2.74.367-4.124A3.294,3.294,0,0,0,349.515,402.761Z" fill="#f5f3e8"/>
      <path id="Trazado_191364" data-name="Trazado 191364" d="M326.55,422.586c.03-2.425-.1-4.9-.292-7.321-.156-1.942-.488-3.629-1.826-4.964-1.972-1.3-4.564-1.924-6.688-.768.032.169.07.342.117.52a53.2,53.2,0,0,0,2.381,7.6,22.83,22.83,0,0,0,7.486,9.152A6.644,6.644,0,0,1,326.55,422.586Z" fill="#cbcac2" style="mix-blend-mode: multiply;isolation: isolate"/>
      <path id="Trazado_191365" data-name="Trazado 191365" d="M325.744,413.2a5.337,5.337,0,0,0-2.557-4.028c-2.061-.926-3.787-.725-5.979-.387-2.288.352-4.6.148-6.872.478a18.416,18.416,0,0,0-5.3,2.04,7.039,7.039,0,0,0-2.074,1.58s-.012.016-.016.021a4.384,4.384,0,0,0-.735.731.238.238,0,0,1-.01-.063c0-.066-.091-.043-.1.008l-.084.138c-.041.04-.051.157.038.132l.006,0a2.215,2.215,0,0,0-.351,1,8.828,8.828,0,0,0,.331,2.344c.231,1.159.142,2.344.312,3.51a17.484,17.484,0,0,0,2.043,5.583c1.127,2.176,2.217,4.437,3.482,6.532,2.129,3.525,4.631,6.613,9.079,6.833,3.912.193,6.778-3.489,7.9-6.922a24.574,24.574,0,0,0,.809-5.9c.158-2.146.423-4.236.431-6.391A52.607,52.607,0,0,0,325.744,413.2Z" fill="#e8e7dc"/>
      <path id="Trazado_191366" data-name="Trazado 191366" d="M325.744,413.2a6.4,6.4,0,0,0-1.133-2.813,2.23,2.23,0,0,1-.2.829,2.891,2.891,0,0,1-1.96,1.217c-2.656.62-3.134,2.624-5.021,4.04-2.046,1.536-4.455,1.382-6.69.192-1.157-.616-2.233-1.374-3.388-1.99a11.547,11.547,0,0,0-5.116-1.061c-.006.008-.013.014-.019.021l0-.022-.123-.007-.068.112c-.041.04-.051.157.038.132l.006,0a2.215,2.215,0,0,0-.351,1,8.828,8.828,0,0,0,.331,2.344c.231,1.159.142,2.344.312,3.51a17.484,17.484,0,0,0,2.043,5.583c1.127,2.176,2.217,4.437,3.482,6.532,2.129,3.525,4.631,6.613,9.079,6.833,3.912.193,6.778-3.489,7.9-6.922a24.574,24.574,0,0,0,.809-5.9c.158-2.146.423-4.236.431-6.391A52.607,52.607,0,0,0,325.744,413.2Z" fill="#f5f3e8"/>
      <path id="Trazado_191367" data-name="Trazado 191367" d="M307.8,432.4c-.452-2.469.128-4.853.142-7.335a40.889,40.889,0,0,0-.422-6.8c-.277-1.673-.77-3.4-2.72-3.941a12.891,12.891,0,0,1-2-.676c-.188-.012-.376-.022-.567-.033-.006.008-.013.014-.019.021l0-.022-.123-.007-.068.112c-.041.04-.051.157.038.132l.006,0a2.215,2.215,0,0,0-.351,1,8.828,8.828,0,0,0,.331,2.344c.231,1.159.142,2.344.312,3.51a17.484,17.484,0,0,0,2.043,5.583c1.127,2.176,2.217,4.437,3.482,6.532l.041.067C307.879,432.726,307.831,432.566,307.8,432.4Z" fill="#cbcac2" style="mix-blend-mode: multiply;isolation: isolate"/>
      <path id="Trazado_191368" data-name="Trazado 191368" d="M306.762,416.874a4.682,4.682,0,0,0-1.342-2.311,2.228,2.228,0,0,0-.346-.392,4.061,4.061,0,0,0-2.1-.813,17.7,17.7,0,0,1-3.811-.9,4.188,4.188,0,0,0-4.6.666c-1.777,1.414-4.491,1.564-6.672,1.847-1.509.2-3.045.055-3.755,1.669-.624,1.42.526,3.574.9,4.917,1.489,5.321,1.778,10.932,3.714,16.124a16.211,16.211,0,0,0,3.781,5.31c.989,1.049,2.892,2.544,4.446,2.432a8.064,8.064,0,0,0,4.944-1.849c1.4-1.195,2.119-3.278,2.841-4.913,1.92-4.348,2.378-9.425,2.672-14.1A28.274,28.274,0,0,0,306.762,416.874Z" fill="#e8e7dc"/>
      <path id="Trazado_191369" data-name="Trazado 191369" d="M306.762,416.874a4.682,4.682,0,0,0-1.342-2.311,2.228,2.228,0,0,0-.346-.392,4.061,4.061,0,0,0-2.1-.813c-.114-.018-.223-.037-.337-.054a2.308,2.308,0,0,1,1.1,1.032c1.218,2.589-1.321,4-3.609,4.041a6.223,6.223,0,0,0-4.254,1.488,3.368,3.368,0,0,1-2.321.784,8.3,8.3,0,0,1-5.26-2.04,9.748,9.748,0,0,0-4.182-1.866c-.534,1.419.562,3.5.929,4.816,1.489,5.321,1.778,10.932,3.714,16.124a16.211,16.211,0,0,0,3.781,5.31c.989,1.049,2.892,2.544,4.446,2.432a8.064,8.064,0,0,0,4.944-1.849c1.4-1.195,2.119-3.278,2.841-4.913,1.92-4.348,2.378-9.425,2.672-14.1A28.274,28.274,0,0,0,306.762,416.874Z" fill="#f5f3e8"/>
      <path id="Trazado_191370" data-name="Trazado 191370" d="M288.8,436.988c.092-2.093.591-4.1.444-6.2-.191-2.739.1-5.518-.115-8.234a6.851,6.851,0,0,0-2.521-5,18.734,18.734,0,0,0-2.5-.813c-.534,1.419.562,3.5.929,4.816,1.489,5.321,1.778,10.932,3.714,16.124.042.109.091.213.137.319A4.347,4.347,0,0,1,288.8,436.988Z" fill="#cbcac2" style="mix-blend-mode: multiply;isolation: isolate"/>
      <path id="Trazado_191371" data-name="Trazado 191371" d="M288.515,427.817c-.26-3.695,1.478-8.987-2.754-10.835a.37.37,0,0,0-.377.093,6.146,6.146,0,0,0-4.114-.081c-1.042.546-1.768,1.512-2.895,1.907-1.342.467-2.612,1.119-3.971,1.533-1.18.359-2.359.678-3.564.937-1.044.224-2.036.16-3.083.482-1.255.385-2.156.422-2.475,1.861-.356,1.608.4,4,.759,5.563.617,2.7,1.368,5.394,2.009,8.093a18.762,18.762,0,0,0,2.324,5.8c.975,1.566,1.8,3.118,3.5,4.013,1.5.787,3.328,1.821,5.089,1.56,3.983-.589,7.245-4.66,8.495-8.3C288.885,436.288,288.822,432.158,288.515,427.817Z" fill="#e8e7dc"/>
      <path id="Trazado_191372" data-name="Trazado 191372" d="M288.515,427.817c-.26-3.695,1.478-8.987-2.754-10.835a.3.3,0,0,0-.207,0,4.966,4.966,0,0,1,1.217,1.947c.677,2-.98,3.737-2.631,4.565a15.382,15.382,0,0,1-10.166,1.135c-2.59-.549-6.166-2.285-8.649-1.052-.013.049-.031.087-.043.139-.356,1.608.4,4,.759,5.563.617,2.7,1.368,5.394,2.009,8.093a18.762,18.762,0,0,0,2.324,5.8c.975,1.566,1.8,3.118,3.5,4.013,1.5.787,3.328,1.821,5.089,1.56,3.983-.589,7.245-4.66,8.495-8.3C288.885,436.288,288.822,432.158,288.515,427.817Z" fill="#f5f3e8"/>
      <path id="Trazado_191373" data-name="Trazado 191373" d="M267.451,432.459c-.3-2.555-.207-6.736-2.155-8.79-.005.016-.01.029-.014.045-.356,1.608.4,4,.759,5.563.509,2.229,1.106,4.454,1.662,6.681C267.644,434.791,267.59,433.622,267.451,432.459Z" fill="#cbcac2" style="mix-blend-mode: multiply;isolation: isolate"/>
      <g id="Grupo_157675" data-name="Grupo 157675">
        <path id="Trazado_191374" data-name="Trazado 191374" d="M362.612,396.986a14.926,14.926,0,0,0-3.408.538,8.864,8.864,0,0,1-3.464-.5,3.163,3.163,0,0,0,.509-1.115c.541-1.479,2.439-1.639,3.8-1.754.024,0,.035-.049.005-.05a7.415,7.415,0,0,0-3.186.4,1.708,1.708,0,0,0-.724.657c-.2.384-.364,1.519-.782,1.765-.3-.074-.583-.141-.834-.18a6.965,6.965,0,0,0-3.834.15c-1.046.532-1.83,1.422-2.836,1.986-.014.009-.012.034.007.027.863-.349,1.607-.971,2.454-1.379,1.579-.759,3.771-.3,5.427,0,.965.171,1.866.5,2.84.585a1.494,1.494,0,0,0,.681-.123,8.475,8.475,0,0,1,3.327-.942C362.631,397.048,362.651,396.987,362.612,396.986Z" fill="#e6e5db" style="mix-blend-mode: multiply;isolation: isolate"/>
        <path id="Trazado_191375" data-name="Trazado 191375" d="M337.278,406.367a17.19,17.19,0,0,1-5-1.032c.29-.274.3-.792.475-1.177a4.727,4.727,0,0,1,2.4-1.873c.021-.01.016-.044-.011-.035a6.177,6.177,0,0,0-2.346,1.23c-.489.472-.551,1.2-.892,1.758a10.3,10.3,0,0,0-2.559-.39,10.887,10.887,0,0,0-5.72,1.884c-.018.011-.007.042.015.033a16.4,16.4,0,0,1,6.784-1.436c1.345,0,2.68.718,3.961,1.068a7.842,7.842,0,0,0,2.882.054C337.309,406.446,337.328,406.367,337.278,406.367Z" fill="#e6e5db" style="mix-blend-mode: multiply;isolation: isolate"/>
        <path id="Trazado_191376" data-name="Trazado 191376" d="M316.786,413.606a16.4,16.4,0,0,0-2.427-.45,1.387,1.387,0,0,0,.2-.115,1.882,1.882,0,0,0,.768-.9c.011-.034-.036-.033-.05-.01a1.885,1.885,0,0,1-1.049.631,3.133,3.133,0,0,0-.68.328,12.124,12.124,0,0,0-1.25,0c-1.562.086-2.824.834-4.308-.1-.015-.008-.035.011-.026.026a1.934,1.934,0,0,0,1.993,1.086c.965-.074,1.921-.53,2.888-.669a13.663,13.663,0,0,1,3.881.327C316.807,413.776,316.875,413.629,316.786,413.606Z" fill="#e6e5db" style="mix-blend-mode: multiply;isolation: isolate"/>
        <path id="Trazado_191377" data-name="Trazado 191377" d="M299.32,416.823a17.353,17.353,0,0,1-2.772-.091,1.316,1.316,0,0,0,.666-1.127c0-.027-.039-.019-.043,0-.1.6-.735.844-1.247,1.053-.726-.082-1.45-.175-2.154-.249-1.545-.165-2.626.837-3.9,1.444-.017.009-.019.045,0,.037,1.513-.495,2.66-1.224,4.336-1.022a18.745,18.745,0,0,0,5.107.029C299.349,416.895,299.367,416.82,299.32,416.823Z" fill="#e6e5db" style="mix-blend-mode: multiply;isolation: isolate"/>
        <path id="Trazado_191378" data-name="Trazado 191378" d="M283.412,421.055a5.1,5.1,0,0,0-2.218.341c-.556.186-1.08.371-1.6.534.045-.051.09-.1.135-.16a5.126,5.126,0,0,1,.766-.8,12.177,12.177,0,0,0,1.252-.912c.026-.027-.007-.06-.037-.04-.468.308-1.009.5-1.481.812a3.664,3.664,0,0,0-1.041,1.2.081.081,0,0,0-.005.021,7.415,7.415,0,0,1-3.876.23,9.67,9.67,0,0,0-4.954.435c-.019.007-.018.044.005.039,2.283-.6,4.3.008,6.556.115a7.216,7.216,0,0,0,2.614-.646,21.887,21.887,0,0,1,3.837-.794C283.554,421.4,283.641,421.079,283.412,421.055Z" fill="#e6e5db" style="mix-blend-mode: multiply;isolation: isolate"/>
        <path id="Trazado_191379" data-name="Trazado 191379" d="M190.362,396.784c-.322-.2-.622-.424-.95-.609a2.011,2.011,0,0,0-.558-.236c-.248-.046-.5.008-.741-.056-.048-.012-.094.063-.042.085a1.309,1.309,0,0,0,.452.1,1.714,1.714,0,0,1,.832.425,1.76,1.76,0,0,0,.892.52C190.348,397.029,190.469,396.85,190.362,396.784Z" fill="#e6e5db" style="mix-blend-mode: multiply;isolation: isolate"/>
        <path id="Trazado_191380" data-name="Trazado 191380" d="M192.828,396.221a6.488,6.488,0,0,1-1.4.553,2.61,2.61,0,0,0-.865.712,3.965,3.965,0,0,0-.6,1.319c-.206.539-.457,1.057-.633,1.608-.05.16.158.146.221.047.246-.386.492-.768.755-1.143a4.353,4.353,0,0,0,.7-1,4.3,4.3,0,0,1,.684-1.151c.313-.4.817-.558,1.179-.9C192.892,396.243,192.867,396.191,192.828,396.221Z" fill="#e6e5db" style="mix-blend-mode: multiply;isolation: isolate"/>
        <path id="Trazado_191381" data-name="Trazado 191381" d="M201.258,389.456c-1.478.452-3.225.017-4.642.558a8.338,8.338,0,0,0-2.845,1.706c-.044.044.016.115.064.072l.174-.16c.009-.009.005-.03-.012-.023a25.775,25.775,0,0,1,3.72-1.339,26.314,26.314,0,0,0,3.554-.724C201.314,389.528,201.314,389.438,201.258,389.456Z" fill="#e6e5db" style="mix-blend-mode: multiply;isolation: isolate"/>
        <path id="Trazado_191382" data-name="Trazado 191382" d="M217.071,384.564c-1.744-.011-3.224.918-5.014.682a11.715,11.715,0,0,0-2.966-.278,19.685,19.685,0,0,1-2.431.715c-.034,0-.053.054-.014.062.577.121.9-.133,1.489-.245,1.236-.236,2.572.183,3.84.1a27.475,27.475,0,0,0,5.083-.927C217.107,384.665,217.142,384.566,217.071,384.564Z" fill="#e6e5db" style="mix-blend-mode: multiply;isolation: isolate"/>
        <path id="Trazado_191383" data-name="Trazado 191383" d="M235.147,377.3c-1.881,1.059-3.822.105-5.808.532a5.23,5.23,0,0,1-.63.091,2.93,2.93,0,0,0,.09-.777,1.709,1.709,0,0,1,.85-1.152c.29-.214.721-.338.939-.639.011-.015,0-.036-.02-.021a6.5,6.5,0,0,1-1.181.57,1.777,1.777,0,0,0-.683.574,1.844,1.844,0,0,0-.264.8c-.044.3.057.5-.2.673a11.113,11.113,0,0,0-2.321.2,10.069,10.069,0,0,0-2.15,1.219c-.076.044-.06.183.039.138,1.289-.587,2.158-1.392,3.67-1.384a23.839,23.839,0,0,1,3.584.477,5.707,5.707,0,0,0,4.1-1.265C235.183,377.32,235.171,377.283,235.147,377.3Z" fill="#e6e5db" style="mix-blend-mode: multiply;isolation: isolate"/>
        <path id="Trazado_191384" data-name="Trazado 191384" d="M253.788,372.484c-1.482-.882-3.122-.58-4.774-.893a4.086,4.086,0,0,0,.789-.745c.447-.518,1.246-.6,1.743-1.064.027-.024.016-.085-.026-.061-.556.318-1.341.184-1.879.527-.473.3-.521.911-.9,1.294-2.1-.4-3.427-.534-5.365.629-.044.026-.037.105.023.08,1.9-.742,3.579-.437,5.552-.455.679-.006,1.475.3,2.188.311a5.227,5.227,0,0,1,2.494.618C253.754,372.785,253.909,372.557,253.788,372.484Z" fill="#e6e5db" style="mix-blend-mode: multiply;isolation: isolate"/>
      </g>
      <path id="Trazado_191385" data-name="Trazado 191385" d="M266.384,428.231c-.236-1.57-.441-3.875-1.739-4.981-1.246-1.063-3.485.027-4.83.038-2.423.019-4.834.392-7.28.373-1.358-.011-3.884-.865-5.069.175-1.235,1.085-.969,2.752-.9,4.258.032.684.075,1.364.123,2.043,0,.111.005.223.005.323a25.342,25.342,0,0,0,3.761,13.681c1.957,3.071,5.477,6.685,9.5,6.216,4.6-.537,6.016-5.855,6.861-9.675C267.715,436.624,266.995,432.289,266.384,428.231Z" fill="#f5f3e8"/>
      <g id="Grupo_157676" data-name="Grupo 157676">
        <path id="Trazado_191386" data-name="Trazado 191386" d="M269.117,381.137c-.069-.13-.242.027-.218.136,1.534,6.881-7.567,8.306-12.484,9.671-2.691.749-5.092,2.133-7.8.454a2.953,2.953,0,0,0-2.591-.55c-.125.024-.2.256-.03.267,2.3.158,1.9,1.8,3.618,2.3a6.962,6.962,0,0,0,3.616.127c3.469-.645,6.8-1.776,10.215-2.648C268.666,389.554,271.775,386.133,269.117,381.137Z" fill="#f19899"/>
        <path id="Trazado_191387" data-name="Trazado 191387" d="M225.921,399.235c-2.318,1.128-4.752,1.018-6.987,2.47-2.917,1.9-3.912,7.238-8.588,5.267a.076.076,0,0,0-.078.121c1.94,1.731,4.312,1.441,6.166-.156,1.906-1.642,2.454-3.809,4.817-5.106,1.6-.88,3.425-1,4.853-2.185C226.3,399.483,226.207,399.1,225.921,399.235Z" fill="#f19899"/>
        <path id="Trazado_191388" data-name="Trazado 191388" d="M244.092,392.374a12.569,12.569,0,0,0-2.816.746,38.759,38.759,0,0,1-4.727,1.151c-2.694.551-5.192.607-7.4,2.413-.087.07-.044.211.075.168,2.748-1,5.75-.217,8.45-1.239,2.181-.826,4.4-1.686,6.5-2.709C244.425,392.779,244.441,392.337,244.092,392.374Z" fill="#f19899"/>
        <path id="Trazado_191389" data-name="Trazado 191389" d="M209.865,411.133c-.009-.081-.115-.06-.128.01a2.223,2.223,0,0,1-1.026,1.6,9.6,9.6,0,0,0-1.559.646,2.165,2.165,0,0,0-.835,2.642.28.28,0,0,0,.519-.035,4.96,4.96,0,0,1,.94-1.632c.42-.385,1.044-.4,1.43-.857A3.011,3.011,0,0,0,209.865,411.133Z" fill="#f19899"/>
      </g>
      <path id="Trazado_191390" data-name="Trazado 191390" d="M191.318,434.945a63.933,63.933,0,0,1-1.193-19.145c.159-1.64-.679-2.662-1.573-3.885-1.318-1.8-1.45-3.4-1.875-5.515-.065-.325-.02-.251-.281-.453a.131.131,0,0,0-.14-.01,2.915,2.915,0,0,0-1.161,2.1c-1.9,4-1.4,8.745-.624,13.029.828,4.584,2.379,11.237,6.269,14.334C191.032,435.634,191.376,435.237,191.318,434.945Z" fill="#fff"/>
      <path id="Trazado_191391" data-name="Trazado 191391" d="M204.774,436.87a46.888,46.888,0,0,1-1.214-8.831c-.3-3.556.475-6.752-2.747-9.042-1.584-1.128-3.121-1.563-4.5-3.08-.836-.918-1.563-1.852-2.83-1.588-.858.178-1.141,1.26-1.162,2.54-.977,4.062,1.532,13.04,1.94,14.675,1,4.014,2.5,8.409,6.475,10.4,2.012,1.01,4.623,1.88,4.982-1.034C205.881,439.588,205.123,438.107,204.774,436.87Z" fill="#fff"/>
      <path id="Trazado_191392" data-name="Trazado 191392" d="M222.3,441.582c-.414-2.619-.879-5.174-1.095-7.825-.244-3,.813-7.715-1.441-10.046-1.091-1.128-3.268-1.386-4.657-1.74-1.8-.458-3.193-1.6-5.075-1.851-1.734-.232-1.71,2.421-1.492,4.246-.029,1.5.259,3.1.324,4.32a50.89,50.89,0,0,0,2.262,13.027c1.075,3.239,9.02,9.635,11.059,3.635A7.56,7.56,0,0,0,222.3,441.582Z" fill="#fff"/>
      <path id="Trazado_191393" data-name="Trazado 191393" d="M239.771,430.141c-.172-2.48.791-4.609-2.222-5.208-2.207-.438-4.22,0-6.512-.589-.9-.231-2.078-1.057-3.019-.869-1.362.273-1.009,2.446-.659,3.861.083.78.267,1.659.339,2.721.272,4.023.437,8.6,1.739,12.455a7.57,7.57,0,0,0,6.233,5.066,3.809,3.809,0,0,0,4.678-3.211C240.795,439.662,240.112,435.042,239.771,430.141Z" fill="#fff"/>
      <path id="Trazado_191394" data-name="Trazado 191394" d="M261.8,434.873c-.029-2.472-.431-8.775-3.493-9.647a21.566,21.566,0,0,0-4.637-.4c-1.119-.083-2.99-.647-4.059-.431-2.355.472-2.337,2.313-1.878,4.287.006.076.007.144.014.226.368,4.222.67,8.316,2.02,12.388,1.359,4.1,8.671,11.846,12.107,5.707C263.657,443.819,261.84,438.284,261.8,434.873Z" fill="#fff"/>
      <path id="Trazado_191395" data-name="Trazado 191395" d="M283.46,426.929c-.224-1.539-1.755-1.3-3.047-.99-4.272-.475-12.175-2.461-12.125,1.708.017,1.387.807,2.836,1.1,4.191.49,2.258.749,4.55,1.145,6.824a9.711,9.711,0,0,0,4.794,7.216c5.262,3.021,7.041-5.982,7.942-9.351A24.227,24.227,0,0,0,283.46,426.929Z" fill="#fff"/>
      <path id="Trazado_191396" data-name="Trazado 191396" d="M302.184,424.407c0-.033,0-.063.005-.1.144-1.865-1.192-3.982-3.167-2.735A11.37,11.37,0,0,1,298,422.2a13.333,13.333,0,0,1-3.624.818A3.22,3.22,0,0,0,291.8,424.9c-1.031,5.7-1.007,11.853,2.37,16.742s5.27-2.147,6.078-5.045a56.251,56.251,0,0,0,1.813-10.566C302.1,425.493,302.136,424.949,302.184,424.407Z" fill="#fff"/>
      <path id="Trazado_191397" data-name="Trazado 191397" d="M322.7,415.385a.539.539,0,0,0-.331-.5c-2.7-1.256-4.149,2.672-5.745,4.334-1.667.134-4.874-1.875-6.149-.3-1.128,1.392-.393,4.061-.489,5.683-.174,2.93-.026,7.156,1.06,9.924a5.947,5.947,0,0,0,3.768,3.261c2.421.4,3.708-1.755,4.912-3.591C323.418,428.568,322.7,421.738,322.7,415.385Z" fill="#fff"/>
      <path id="Trazado_191398" data-name="Trazado 191398" d="M345.187,407.8a.613.613,0,0,0-.719-.418c-1.718.363-3.431.4-4.969,1.316-1.376.813-2.5,2.668-3.776,4.212l-.017.005c-2.149.921-3.827,1.913-6.3,1.386-.278-.058-.5.313-.443.548.931,3.605,1.532,7.129,2.274,10.78.506,2.494,3.514,3.511,5.711,2.57,3.883-1.664,5.114-4.759,6-8.623.571-2.5.791-5.051,1.412-7.538C344.671,410.8,345.725,409.078,345.187,407.8Z" fill="#fff"/>
      <path id="Trazado_191399" data-name="Trazado 191399" d="M366.892,400.981c-1.986-.651-4.273.817-5.827,2.268q-2.027.5-4.079.846c-.923.154-3.293-.067-3.928,1.024-1,1.73-.341,4.317-.549,6.257-.21,1.968-.514,3.613.9,5.128.98,1.054,3.275.731,4.5.523a7.619,7.619,0,0,0,4.114-2.667c1.7-1.762,2.383-4.142,2.97-6.458a20.6,20.6,0,0,1,1.048-3.962c.316-.672.843-1.237,1.168-1.907A.743.743,0,0,0,366.892,400.981Z" fill="#fff"/>
      <path id="Trazado_191400" data-name="Trazado 191400" d="M366.4,393.817c-1.1-2.368-7.6-2.573-9.677-1.679-2.548,1.093-4.176,2.6-7.074,3-1.543.431-3.243,1.106-3.605,2.654a.592.592,0,0,0,.179-.074c.052-.032.106-.055.158-.086a8.862,8.862,0,0,1,2.8-1.307c1.642-.472,3.27.065,4.855-.064.644-.681,1.1-1.571,2.005-2.021.983-.491,3.032-.813,4.013-.137.22.151-.338.529-.7.637a4.115,4.115,0,0,0-1.731.806,2.907,2.907,0,0,0-.56,1.416.6.6,0,0,0,.46.04c2.938-.9,6.206-.255,8.682-2.376A.655.655,0,0,0,366.4,393.817Z" fill="#e6e5db" style="mix-blend-mode: screen;isolation: isolate"/>
      <path id="Trazado_191401" data-name="Trazado 191401" d="M362.841,397.328c-1.078.082-2.059.723-3.149.9a12.651,12.651,0,0,1-1.861.167,2.527,2.527,0,0,0-1.1-.02,18.8,18.8,0,0,1-2.928-.439,7.736,7.736,0,0,0-1.957-.23,2.455,2.455,0,0,0-2.07.61c-1.584,1.584-.6,2.42.9,3.582,1.515,1.177,4.558.009,6.142-.506,2.06-.669,4.825-1.792,6.308-3.449A.357.357,0,0,0,362.841,397.328Z" fill="#e6e5db" style="mix-blend-mode: screen;isolation: isolate"/>
      <path id="Trazado_191402" data-name="Trazado 191402" d="M345.035,401.673a2.344,2.344,0,0,0-1.7-.567,21.742,21.742,0,0,1-3.422-.423c-1.173-.283-2.508-1.214-3.764-1.054a9.157,9.157,0,0,0-7.779,2.437c-2.357,2.235-7.459.629-8.61,4.08-.747,2.24,3.555.3,3.853.131,1.993-1.183,4.142-1,6.189-1.743a8.774,8.774,0,0,0,2.924-2.3c.221-.13.444-.25.671-.36a9.821,9.821,0,0,1,3.222-.166c.089.056.182.107.27.166-1.409.245-2.7.941-2.981,2.142-.471,2.025,6.155,1.309,7.187,1.026C342.435,404.675,347.328,404.056,345.035,401.673Z" fill="#e6e5db" style="mix-blend-mode: screen;isolation: isolate"/>
      <path id="Trazado_191403" data-name="Trazado 191403" d="M336.182,406.981a19.594,19.594,0,0,0-3.2-.719,20.822,20.822,0,0,0-2.735-.8,8.9,8.9,0,0,0-3.119.346c-.011,0-.02.009-.031.013-1.733.189-3.312.859-3.977,2.1a.578.578,0,0,0,.245.822c1.553.5,2.594,1.441,4.012,2.124a7,7,0,0,0,4.3.245c1.377-.331,4.767-1.977,4.766-3.73A.428.428,0,0,0,336.182,406.981Z" fill="#e6e5db" style="mix-blend-mode: screen;isolation: isolate"/>
      <path id="Trazado_191404" data-name="Trazado 191404" d="M317.613,414.666a3.52,3.52,0,0,0-2.664-.807,7.244,7.244,0,0,0-1.964-.048c-.817.1-2.891.148-3.147,1.2a.343.343,0,0,0,.1.345,7.334,7.334,0,0,0,4.077,1.633,4.068,4.068,0,0,0,3.681-1.747A.478.478,0,0,0,317.613,414.666Z" fill="#e6e5db" style="mix-blend-mode: screen;isolation: isolate"/>
      <path id="Trazado_191405" data-name="Trazado 191405" d="M322.41,410.793c-.914-2.346-6.6-1.346-8.312-1.077-.869.136-3.671-.028-5.6.471-.86-.066-2.4,1.179-2.807,1.441s-1.075.8-.84,1.359c.2.473,1.412.638,1.847.528a.563.563,0,0,0,.412-.41.639.639,0,0,0-.073-.5.567.567,0,0,0-.08-.106c.068-.012.138-.026.207-.037.189-.032.389-.064.592-.106a6.722,6.722,0,0,0,2.587.248c2.193-.385,4.089-1.367,6.241-1.517-.281.264-.552.539-.825.817a.539.539,0,0,0,.27.92,3.857,3.857,0,0,0,1.364-.037,17.258,17.258,0,0,0,4.714-1.406A.521.521,0,0,0,322.41,410.793Z" fill="#e6e5db" style="mix-blend-mode: screen;isolation: isolate"/>
      <path id="Trazado_191406" data-name="Trazado 191406" d="M301.431,413.5a12.15,12.15,0,0,1-4.273-1.008c-.577-.289-1.461.468-1.873.8a10.9,10.9,0,0,1-4.8,1.76c-.385.023-.772.046-1.159.051a5.771,5.771,0,0,0-3.037.788.563.563,0,0,0-.1.842,1.976,1.976,0,0,0,1.013.534c.882.725,2.445-.137,3.212-.531,1.621-.827,3.279-.27,4.9-.491a.539.539,0,0,0,.3-.187,3.253,3.253,0,0,1,2.741-1.045c-.139.147-.278.3-.417.46a.473.473,0,0,0,.237.806c.936.191,3.709.212,4.307-.642C303.234,414.56,302.874,413.666,301.431,413.5Z" fill="#e6e5db" style="mix-blend-mode: screen;isolation: isolate"/>
      <path id="Trazado_191407" data-name="Trazado 191407" d="M298.016,417.393a26.247,26.247,0,0,0-4.441-.264c-1.121.123-3.088.558-3.625,1.678a.214.214,0,0,0,.1.3.326.326,0,0,0,.135.165,4.362,4.362,0,0,0,2.079.586,3.286,3.286,0,0,0,2.2-.09,19.515,19.515,0,0,0,3.66-1.619C298.383,417.958,298.433,417.422,298.016,417.393Z" fill="#e6e5db" style="mix-blend-mode: screen;isolation: isolate"/>
      <path id="Trazado_191408" data-name="Trazado 191408" d="M284.539,417.319a4.782,4.782,0,0,0-3.947.672,25.824,25.824,0,0,1-2.4,1.9,11.791,11.791,0,0,1-4.226,1.143c-.3.032-.427.634-.068.612.372.028.779.06,1.2.08a6.723,6.723,0,0,0,3.164.054c.874-.363.691-.377,1.523-1.152a3.957,3.957,0,0,1,2.5-.985,1.29,1.29,0,0,0-.447.614.287.287,0,0,0,.244.367c.779.148,2.722.13,3.287-.567C285.983,419.3,285.574,417.545,284.539,417.319Z" fill="#e6e5db" style="mix-blend-mode: screen;isolation: isolate"/>
      <path id="Trazado_191409" data-name="Trazado 191409" d="M280.441,422.592a7.915,7.915,0,0,1-2.99.656,6.75,6.75,0,0,1-1.961-.207l-.039,0-.035-.013-.723-.166a5.844,5.844,0,0,0-1.349-.067,6.508,6.508,0,0,0-2.319.74,19.01,19.01,0,0,0,7.2.832,10.036,10.036,0,0,0,5.4-2.1A12.358,12.358,0,0,0,280.441,422.592Z" fill="#e6e5db" style="mix-blend-mode: screen;isolation: isolate"/>
      <g id="Grupo_157677" data-name="Grupo 157677">
        <path id="Trazado_191410" data-name="Trazado 191410" d="M189.436,397.708a1.325,1.325,0,0,0-1.125-1.1,1.117,1.117,0,0,0-1-.394c-.856.172-1.393,1.251-1.672,1.968a7.139,7.139,0,0,0-.652,3.616c.121.61.53,1.529,1.336,1.367.839-.168,1.392-1.649,1.739-2.3.324-.6.594-1.22.942-1.812A2.048,2.048,0,0,0,189.436,397.708Z" fill="#e6e5db" style="mix-blend-mode: screen;isolation: isolate"/>
        <path id="Trazado_191411" data-name="Trazado 191411" d="M194.3,394.913c-.031-.019-.064-.032-.1-.05l0,0-.011,0a7.875,7.875,0,0,0-3.495-.609c-1.082-.05-1.837-.6-2.819.133-.252.188-.3.729.108.752a8.753,8.753,0,0,1,1.524.137,1,1,0,0,1,.3.34c.12.224.471.606.747.625,1.085.072,2.144-.806,3.235-.528C194.184,395.806,194.73,395.192,194.3,394.913Z" fill="#e6e5db" style="mix-blend-mode: screen;isolation: isolate"/>
        <path id="Trazado_191412" data-name="Trazado 191412" d="M195.236,396.2c-.568-.767-1.557-.2-2.394.679a4.617,4.617,0,0,0-.741.439,3.887,3.887,0,0,0-1.343,2.946c-.031.348-.35,1.07,0,1.356.49.4.986-.392,1.185-.7a9.293,9.293,0,0,1,2.363-2.423C194.929,398.042,195.816,396.98,195.236,396.2Z" fill="#e6e5db" style="mix-blend-mode: screen;isolation: isolate"/>
        <path id="Trazado_191413" data-name="Trazado 191413" d="M203.577,387.975c-2.278-2.663-5.193-1.319-7.758.07-1.155.626-2.95.631-3.359,2.213-.1.384-.447,1.314.022,1.579.052.028.115-.034.126-.08.372-1.561,2.991-1.817,4.2-2.437.3-.155.589-.334.877-.513,1.608.13,4.2.717,5.62-.1C203.519,388.587,203.79,388.223,203.577,387.975Z" fill="#e6e5db" style="mix-blend-mode: screen;isolation: isolate"/>
        <path id="Trazado_191414" data-name="Trazado 191414" d="M200.119,390.554a2.917,2.917,0,0,0-.752-.08l-.012-.005a2.013,2.013,0,0,0-1.116.064c-.547.093-1.2.245-1.741.392a5.655,5.655,0,0,0-2.473,1.291.392.392,0,0,0,.2.671,5.749,5.749,0,0,1,2.055.664,2.065,2.065,0,0,0,1.72.216c1.137-.367,1.335-1.723,2.131-2.445C200.315,391.152,200.5,390.649,200.119,390.554Z" fill="#e6e5db" style="mix-blend-mode: screen;isolation: isolate"/>
        <path id="Trazado_191415" data-name="Trazado 191415" d="M210.3,379.746a4.325,4.325,0,0,0-1.62,1.024,5.964,5.964,0,0,1-3.412,1.432c-1.475.091-2.264,1.315-3.113,2.3-.055.066,0,.174.086.132a6.986,6.986,0,0,1,4.156-.82,2.291,2.291,0,0,0,1.536-.4c1.24.394,2.438,1.265,3.606,1.127,1.51-.18,3.092-1.511,4.483-1.542a.685.685,0,0,0,.676-.674C216.74,379.937,211.8,379.539,210.3,379.746Z" fill="#e6e5db" style="mix-blend-mode: screen;isolation: isolate"/>
        <path id="Trazado_191416" data-name="Trazado 191416" d="M215.447,386.257c-.948-.9-3.452-.375-4.649-.274a20.484,20.484,0,0,1-2.845-.245,10.286,10.286,0,0,0-2.335.339c-.55.105-.743.949-.119,1.081a4.747,4.747,0,0,1,.53.146c.381.386,1.238,1.276,1.7,1.275,1.006,0,2.063-.839,3.038-1.061a11.14,11.14,0,0,1,3.04-.348,2.682,2.682,0,0,0,1.562-.273A.426.426,0,0,0,215.447,386.257Z" fill="#e6e5db" style="mix-blend-mode: screen;isolation: isolate"/>
        <path id="Trazado_191417" data-name="Trazado 191417" d="M224.174,373.377c-1.809,1.587-4.544,1.921-6.708,2.749a4.109,4.109,0,0,0-1.338.752,1.3,1.3,0,0,0-.946,1.216c.014,1.129,1.784,1.412,2.549,1.888.632.393,1.929,1.072,2.728.682a.846.846,0,0,0,.957-.336,5.621,5.621,0,0,1,2.457-2.175c.058-.024.116-.043.173-.065.133-.037.239-.063.287-.07a9.771,9.771,0,0,0,2.881-.539c1.6-.751.792-2.929,2.535-3.694a.793.793,0,0,0,.467-.721C229.868,370.5,225.256,372.427,224.174,373.377Z" fill="#e6e5db" style="mix-blend-mode: screen;isolation: isolate"/>
        <path id="Trazado_191418" data-name="Trazado 191418" d="M238.909,374.908c-.484-.813-1.531-.865-2.493-.816A6.428,6.428,0,0,0,235,373.8a4.65,4.65,0,0,0-2.914.623,2.586,2.586,0,0,0-1.035,1.119c-.335.484-.606,1.209.074,1.439a8.727,8.727,0,0,0,3.993-.117c1.057-.2,2.693-.268,3.541-.947A.8.8,0,0,0,238.909,374.908Z" fill="#e6e5db" style="mix-blend-mode: screen;isolation: isolate"/>
        <path id="Trazado_191419" data-name="Trazado 191419" d="M237.212,377.122a3.38,3.38,0,0,0-1.612.4,8.464,8.464,0,0,1-7.042,1.307c-1.344-.232-4.761.743-5.462,2.129a6.65,6.65,0,0,0-1.368.883c-.343.3-.528.976.014,1.192,3.026,1.208,6.775.3,9.54-1.131,1.215-.631,2.182-1.569,3.329-2.3a15.8,15.8,0,0,0,2.829-1.709C237.662,377.679,237.611,377.1,237.212,377.122Z" fill="#e6e5db" style="mix-blend-mode: screen;isolation: isolate"/>
        <path id="Trazado_191420" data-name="Trazado 191420" d="M249.97,366.975a3.577,3.577,0,0,0-2.041-.569,1,1,0,0,0-.574-.025l-.1.027a33.125,33.125,0,0,0-5.283.929c-2.256.466-4.482,1.384-6.744,1.92-.928.22-1.36.293-1.871,1.1a.527.527,0,0,0,.007.524c.945,1.5,3.413,1.806,5.034,1.986a5.146,5.146,0,0,0,2.69-.471c1.331-.534,1.01-.965,2.887-1.475.747-.2.9-.062,1.248-.174a7.321,7.321,0,0,0,1.089.051c1.489-.053,2.59-2.121,3.563-2.986C250.093,367.612,250.261,367.2,249.97,366.975Z" fill="#e6e5db" style="mix-blend-mode: screen;isolation: isolate"/>
        <path id="Trazado_191421" data-name="Trazado 191421" d="M257.307,368.784a5.462,5.462,0,0,0-3.563.224c-1.153.227-2.5.837-2.191,1.925.215.762,1.251.737,1.861.657,1.057-.14,2.1-.218,3.152-.327.686-.071,1.766-.356,1.989-1.119C258.8,369.3,257.99,368.946,257.307,368.784Z" fill="#e6e5db" style="mix-blend-mode: screen;isolation: isolate"/>
        <path id="Trazado_191422" data-name="Trazado 191422" d="M252.469,373.176a7.185,7.185,0,0,0-2.5-.5,13.907,13.907,0,0,0-1.812-.417c-.877-.132-2.423-.455-3.177.248a.626.626,0,0,0-.191.783c.249.371.725.489,1.1.7a16.224,16.224,0,0,0,2.208,1.22,4.858,4.858,0,0,0,4.13-.384C252.9,374.495,253.43,373.588,252.469,373.176Z" fill="#e6e5db" style="mix-blend-mode: screen;isolation: isolate"/>
      </g>
      <g id="Grupo_157678" data-name="Grupo 157678">
        <path id="Trazado_191423" data-name="Trazado 191423" d="M186.658,447.572c0-3.7-2.186-8.706-.628-12.1.034-.076-.054-.119-.1-.059-2.9,3.44-1,6.628-.6,10.765.4,4.173.185,8.71,2.118,12.547.045.09.19-.016.158-.1C186.244,455.065,186.661,451.293,186.658,447.572Z" fill="#f19899" opacity="0.7" style="mix-blend-mode: screen;isolation: isolate"/>
        <path id="Trazado_191424" data-name="Trazado 191424" d="M199.827,444.061a5.053,5.053,0,0,1-2.429-1.867,9.776,9.776,0,0,0-1.643-1.775,1.932,1.932,0,0,0-3.019.439c.008-.018-.006-.037-.025-.029a.288.288,0,0,1-.041.015c-.12-.041-.222.177-.1.2a2.732,2.732,0,0,0,.875,0c1.246-.118,1.9,1.01,2.663,1.752a4.77,4.77,0,0,0,3.6,1.593C199.861,444.382,200.018,444.139,199.827,444.061Z" fill="#f19899" opacity="0.7" style="mix-blend-mode: screen;isolation: isolate"/>
        <path id="Trazado_191425" data-name="Trazado 191425" d="M213.684,448.235a5.628,5.628,0,0,1-2.718-1.864,5.063,5.063,0,0,0-1.357-1.177,2.187,2.187,0,0,0-2.921.4.118.118,0,0,0,.128.2c1.456-.588,2.44.43,3.551,1.172a9.139,9.139,0,0,0,3.192,1.533C213.7,448.523,213.848,448.287,213.684,448.235Z" fill="#f19899" opacity="0.7" style="mix-blend-mode: screen;isolation: isolate"/>
        <path id="Trazado_191426" data-name="Trazado 191426" d="M237.172,449.81a14.872,14.872,0,0,1-5.916-1.832,5.854,5.854,0,0,0-2.455-1.237c-2.734-.164-3.54,2.48-6.029,3.109-.061.015-.076.117,0,.111,2.885-.259,4.474-3.361,7.7-1.018,1.944,1.411,4.36,1.507,6.655,1.247C237.32,450.167,237.394,449.84,237.172,449.81Z" fill="#f19899" opacity="0.7" style="mix-blend-mode: screen;isolation: isolate"/>
        <path id="Trazado_191427" data-name="Trazado 191427" d="M254.679,449.863a12.053,12.053,0,0,1-3.462-2.594,4.653,4.653,0,0,0-2.822-1.257c-2.506.114-3.149,1.722-4.846,3.265-.051.046-.031.147.05.11,1.955-.866,3.187-2.167,5.552-1.387,1.89.623,3.337,1.956,5.355,2.345A.266.266,0,0,0,254.679,449.863Z" fill="#f19899" opacity="0.7" style="mix-blend-mode: screen;isolation: isolate"/>
        <path id="Trazado_191428" data-name="Trazado 191428" d="M270.248,446.318a2.566,2.566,0,0,0-2.924-.354,5.192,5.192,0,0,0-1.233,1.046c-.44.487-.177,1.268-.56,1.727-.011.012-.006.04.015.034a.663.663,0,0,0,.43-.24,6.115,6.115,0,0,1,.992-.918,5.348,5.348,0,0,1,3.045-.82C270.22,446.779,270.463,446.495,270.248,446.318Z" fill="#f19899" opacity="0.7" style="mix-blend-mode: screen;isolation: isolate"/>
        <path id="Trazado_191429" data-name="Trazado 191429" d="M299.817,445.874a7.96,7.96,0,0,1-7.188-.7c-.864-.514-1.76-1.358-2.867-1.207-2.991.406-2.96,3.151-5.062,4.756-.028.022-.012.076.025.056a12.416,12.416,0,0,0,2.222-1.922c2.05-1.738,3.617-1.026,5.929-.362,2.333.67,4.848.831,6.989-.458C299.953,445.983,299.941,445.827,299.817,445.874Z" fill="#f19899" opacity="0.7" style="mix-blend-mode: screen;isolation: isolate"/>
        <path id="Trazado_191430" data-name="Trazado 191430" d="M310.161,439.152a2.317,2.317,0,0,0-2.977-.329,3.1,3.1,0,0,0-1.413,2.422c0,.049.063.04.082,0a3.663,3.663,0,0,1,1.746-1.5,6.11,6.11,0,0,1,2.287-.043C310.137,439.7,310.4,439.353,310.161,439.152Z" fill="#f19899" opacity="0.7" style="mix-blend-mode: screen;isolation: isolate"/>
        <path id="Trazado_191431" data-name="Trazado 191431" d="M331.067,430.9c-2.058-.874-3.823.395-5.076,2.025a25.946,25.946,0,0,0-1.884,3.7,8.314,8.314,0,0,1-3.565,3.421c-.048.024-.037.1.023.081a9.134,9.134,0,0,0,4.061-3.207c1.947-2.562,2.7-5.111,6.335-5.561C331.166,431.326,331.287,430.988,331.067,430.9Z" fill="#f19899" opacity="0.7" style="mix-blend-mode: screen;isolation: isolate"/>
        <path id="Trazado_191432" data-name="Trazado 191432" d="M346.6,426.151a16.11,16.11,0,0,0-2.148,2.626,6.125,6.125,0,0,1-4.337,2.043c-.01,0-.02.017-.008.021,3.105,1.13,5.631-2.013,6.928-4.337A.283.283,0,0,0,346.6,426.151Z" fill="#f19899" opacity="0.7" style="mix-blend-mode: screen;isolation: isolate"/>
        <path id="Trazado_191433" data-name="Trazado 191433" d="M369.185,410.75c-1.187,2-2.209,4.245-3.965,5.824s-4.745,3.125-7.187,2.963c-.021,0-.041.036-.016.043a8.348,8.348,0,0,0,7.339-1.774c2.266-1.8,3.141-4.361,4.069-7.005C369.485,410.633,369.252,410.638,369.185,410.75Z" fill="#f19899" opacity="0.7" style="mix-blend-mode: screen;isolation: isolate"/>
        <path id="Trazado_191434" data-name="Trazado 191434" d="M375.983,406.055c-.682-.613-1.7-.023-2.411.311a13.146,13.146,0,0,0-2.447,1.721c-.011.007-.005.025.007.019a8.513,8.513,0,0,1,2.218-.92c.9-.181,1.766.209,2.543-.36A.512.512,0,0,0,375.983,406.055Z" fill="#f19899" opacity="0.7" style="mix-blend-mode: screen;isolation: isolate"/>
        <path id="Trazado_191435" data-name="Trazado 191435" d="M382.235,403.029a6.044,6.044,0,0,1-.743.749,3.474,3.474,0,0,0-.674.565.31.31,0,0,0,.155.527c.81.123,1.181-1.2,1.417-1.752C382.44,403,382.313,402.947,382.235,403.029Z" fill="#f19899" opacity="0.7" style="mix-blend-mode: screen;isolation: isolate"/>
      </g>
      <g id="Grupo_157679" data-name="Grupo 157679" opacity="0.6">
        <path id="Trazado_191436" data-name="Trazado 191436" d="M264.847,379.373a42.678,42.678,0,0,1-.007-4.622c0-2.128-1.671-1.789-3.5-1.992-2.582-.287-4.23,2.11-5.894,3.7-1.331.862-1.666.4-1.705,2.611-.041,2.351-.586,5.838.392,8.033.593,1.333,3.345-.184,3.951-.586a10.513,10.513,0,0,1,3.3-1.7,8.477,8.477,0,0,0,1.7-.4,3.132,3.132,0,0,0,1.691-1.677C265.264,381.728,264.964,380.41,264.847,379.373Z" fill="#e6e5db" style="mix-blend-mode: screen;isolation: isolate"/>
        <path id="Trazado_191437" data-name="Trazado 191437" d="M246.088,379.6a.481.481,0,0,0-.435-.351c-1.138.062-2.213.407-3.371.478-1.517.094-2.768-.161-4.253.553a23.9,23.9,0,0,0-4.44,3.035c-.938.731-2.355.89-3.091,1.847a.591.591,0,0,0-.076.645c.615,1.375.222,5.115,1.935,5.734.861.308,2.734-.379,3.862-.332s2.421-1.059,3.313-1.587c1.548-.918,5.2-1.045,6.1-2.947a4.875,4.875,0,0,0,.35-1.113A10.9,10.9,0,0,0,246.088,379.6Z" fill="#e6e5db" style="mix-blend-mode: screen;isolation: isolate"/>
        <path id="Trazado_191438" data-name="Trazado 191438" d="M224.172,391.161a.4.4,0,0,0,.03-.092c.213-1.447.369-3.585-1.342-4.063-.848-.237-1.892.52-2.6.84-1.358.615-3.139.2-4.59.7-1.776.611-3,1.317-2.415,3.1a39.353,39.353,0,0,1,1.378,9.985.382.382,0,0,0,.652.254,8.714,8.714,0,0,0,1.533-1.73,8.867,8.867,0,0,1,4.231-2.916c.88-.375,3.033-.829,3.3-2.025A11.335,11.335,0,0,0,224.172,391.161Z" fill="#e6e5db" style="mix-blend-mode: screen;isolation: isolate"/>
        <path id="Trazado_191439" data-name="Trazado 191439" d="M206.488,400.014c-.128-2.642.466-5.334-.214-7.93-.509-1.942-2.361-.406-3.491.973a.131.131,0,0,0-.133.038c-3.77,3.9-1.993,15.077,4.243,15.927.269.037.445-.272.4-.5A66.394,66.394,0,0,1,206.488,400.014Z" fill="#e6e5db" style="mix-blend-mode: screen;isolation: isolate"/>
        <path id="Trazado_191440" data-name="Trazado 191440" d="M202.8,412.844a9.574,9.574,0,0,0-2-3.343c-.705-1.983-1.577-3.9-2.266-5.892-.5-1.443-.7-3.341-1.481-4.646a.084.084,0,0,0-.071-.043c-.654.017-1.246,1.642-1.46,2.084a8.891,8.891,0,0,0-.727,6.034,8.645,8.645,0,0,0,3.8,5.226c1.043.592,2.716,1.8,3.945,1.086A.464.464,0,0,0,202.8,412.844Z" fill="#e6e5db" style="mix-blend-mode: screen;isolation: isolate"/>
      </g>
    </g>
    <g id="Grupo_157685" data-name="Grupo 157685">
      <path id="Trazado_191441" data-name="Trazado 191441" d="M198.957,313.241c1.8-5.089,3.127-10.328,5.107-15.361,1.813-4.605,3.891-9.289,7.128-13.093a31.277,31.277,0,0,1,3.593-3.639c-1.688-.628-5.217-1.519-8,.613-3.431,2.631-13.052,20.965-14.133,40.216C194.946,322.861,198.555,314.375,198.957,313.241Z" fill="#be6872"/>
      <g id="Grupo_157684" data-name="Grupo 157684">
        <g id="Grupo_157682" data-name="Grupo 157682">
          <path id="Trazado_191442" data-name="Trazado 191442" d="M216.843,281.2s-5.138-2.826-8.991,0-15.671,24.662-15.157,45.984c0,0,96.078,41.359,180.6,56,0,0,11.046,2.57,14.128-4.88s3.083-12.331,6.166-16.955,9.249-17.469,2.826-20.037-19.78-1.8-35.966-15.671S326.28,300.462,303.93,297.38s-50.094,7.192-66.021-3.6S216.843,281.2,216.843,281.2Z" fill="#f19899"/>
          <g id="Grupo_157681" data-name="Grupo 157681">
            <path id="Trazado_191443" data-name="Trazado 191443" d="M396.412,341.309c-6.422-2.57-19.78-1.8-35.966-15.671S326.28,300.462,303.93,297.38s-50.094,7.192-66.021-3.6c-1.087-.737-2.119-1.427-3.107-2.082,7.81,6.989,21.59,8.453,31.065,8.47,9.831.016,19.574-1.811,29.419-.552,3.814.488,11.432,1.772,10.513,7.262-.358,2.137-1.632,3.863-1.994,6.025a67.5,67.5,0,0,1-2.2,8.512c-1.976,6.527-3.039,13.3-5.389,19.72a22.036,22.036,0,0,1-4.415,7.508c-.545.576-2.1,2.867-3.2,2.256-1.808-1-2.443-3.65-4.2-4.917a4.731,4.731,0,0,0-4.774-.814c-3.416,1.5-5.605,5.351-7.32,8.479-.491.9-.95,1.813-1.4,2.734,31.123,10.3,67.722,20.792,102.38,26.8,0,0,11.046,2.57,14.128-4.88s3.083-12.331,6.166-16.955S402.835,343.877,396.412,341.309Z" fill="#f19899" opacity="0.6" style="mix-blend-mode: multiply;isolation: isolate"/>
            <path id="Trazado_191444" data-name="Trazado 191444" d="M396.412,341.309c-6.422-2.57-19.78-1.8-35.966-15.671C346,313.253,330.111,302.92,310.967,298.653a58.77,58.77,0,0,1,10.3,3.987,121.328,121.328,0,0,1,17.268,10.733,180.006,180.006,0,0,1,15.37,13.036c4.58,4.3,9.483,9.971,15.828,11.577,3.495.884,7.107,1.072,10.625,1.837,1.956.425,4.356,1.1,5.62,2.811a4.984,4.984,0,0,1,.711,5.327c-.907,1.995-3.19,2.859-4.806,4.141-3.393,2.691-4.543,6.605-5.666,10.6-.6,2.138-.976,4.755-2.331,6.587a6.5,6.5,0,0,1-4.766,2.632,13.142,13.142,0,0,0-7.833,3.544.335.335,0,0,1-.469-.017c-2.123-2.7-2.384-7.547-5.931-8.918-3.191-1.233-6.22.014-9.188,1.271a5.027,5.027,0,0,1-3.126.581c-1.015-.225-1.758-1.334-2.242-2.158-.925-1.57-2.1-3.544-4.03-3.971-3.687-.816-5.607,3.155-9,2.77-2.8-.317-3.093-2.6-3.82-4.88-.637-1.995-2.08-4.837-4.645-4.058a16.228,16.228,0,0,0-3.5,1.714c-1.56.915-4.395,2.8-6.288,1.677-1.689-1-1.941-3.053-2.921-4.554.02,1.22-.9,2.382-1.983,3.517-.349.369-1.056-.25-.706-.609.674-.693,2.483-2.313,1.7-3.5a4.129,4.129,0,0,0-.839-.9c-.02-.008-.037-.018-.058-.026a.33.33,0,0,1-.2-.174,8.586,8.586,0,0,0-6.512-1.083,20.954,20.954,0,0,0-4.495,2.052,3.518,3.518,0,0,1-1.578.429c-3.253-.106-3.946-5.459-7.528-4.809-3.459.626-4.979,5.677-6.283,8.424-.048.1-.1.2-.147.3,29.628,9.583,63.542,19.055,95.781,24.64,0,0,11.046,2.57,14.128-4.88s3.083-12.331,6.166-16.955S402.835,343.877,396.412,341.309Z" fill="#f19899" opacity="0.6" style="mix-blend-mode: multiply;isolation: isolate"/>
            <path id="Trazado_191445" data-name="Trazado 191445" d="M211.955,321.043c-4.322.84-7.328,5.933-9.1,10.347,4.282,1.736,9.795,3.934,16.321,6.451a16.19,16.19,0,0,0-.217-9.893C218.093,325.206,215.664,320.322,211.955,321.043Z" fill="#f19899" opacity="0.5" style="mix-blend-mode: multiply;isolation: isolate"/>
            <path id="Trazado_191446" data-name="Trazado 191446" d="M198.809,322.47a4.157,4.157,0,0,0-6-.473c-.11,1.723-.156,3.454-.115,5.182,0,0,3.216,1.383,8.97,3.727C201.4,327.858,201.246,324.909,198.809,322.47Z" fill="#f19899" opacity="0.5" style="mix-blend-mode: multiply;isolation: isolate"/>
            <path id="Trazado_191447" data-name="Trazado 191447" d="M231.558,326.715a12.385,12.385,0,0,0-5.447,4.168,41.823,41.823,0,0,0-4.57,7.869c7.2,2.759,15.51,5.858,24.661,9.127.532-6.287-.538-13.43-4.68-18.081C238.933,326.891,235.384,325.311,231.558,326.715Z" fill="#f19899" opacity="0.5" style="mix-blend-mode: multiply;isolation: isolate"/>
            <path id="Trazado_191448" data-name="Trazado 191448" d="M267.583,338.591c-1.153-2.275-3.188-4.479-5.952-4.468-3.2.01-5.563,2.142-7.38,4.559-.3.393-1.151.009-.83-.4a16.1,16.1,0,0,1,1.173-1.331c-2.375,1.447-3.181,5.729-3.646,8.044a43.649,43.649,0,0,0-.7,4.321c5.629,1.988,11.545,4.026,17.69,6.079C269.2,349.98,270.041,343.445,267.583,338.591Z" fill="#f19899" opacity="0.5" style="mix-blend-mode: multiply;isolation: isolate"/>
          </g>
          <path id="Trazado_191449" data-name="Trazado 191449" d="M263.084,333.986s-6.486-3.082-11.367,1.028-6.958,11.7-8.336,19.968c-1.137,6.817,1.025,8.8,5.033,10.474s12.571,3.29,16.01-3.646S270.791,339.895,263.084,333.986Z" fill="#f5f3e8"/>
          <path id="Trazado_191450" data-name="Trazado 191450" d="M361.218,375.174s4.753-3.263,9.506-1.545,4.495,5.058,3.723,8.525-3.083,9.891-7.064,9.891-9.505,1.027-11.432-2.7S361.218,375.174,361.218,375.174Z" fill="#deddd3"/>
          <path id="Trazado_191451" data-name="Trazado 191451" d="M360.639,386.956a17.585,17.585,0,0,0,2.752-7.564,23.463,23.463,0,0,0,.066-3.516c-.066-2.456,3.732-2.963,6.855-2.37-4.611-1.4-9.094,1.668-9.094,1.668s-7.194,10.449-5.267,14.173a4.427,4.427,0,0,0,1.669,1.774C358,389.554,359.782,388.166,360.639,386.956Z" fill="#cbcac2" opacity="0.7" style="mix-blend-mode: multiply;isolation: isolate"/>
          <path id="Trazado_191452" data-name="Trazado 191452" d="M201.686,330.133s-2.825-10.4-6.935-10.147-8.606,16.312-6.038,28.772c0,0,2.139,4.894,10.061,4.053C198.774,352.811,203.1,341.179,201.686,330.133Z" fill="#f5f3e8"/>
          <path id="Trazado_191453" data-name="Trazado 191453" d="M201.686,330.133s-.344-1.267-.967-2.9c-.271,3.775-2.629,7.656-3.215,11.368-.558,3.529-.944,7.771.126,11.24.465,1.51.454,2.306-.118,3.057.405-.012.821-.036,1.262-.082C198.774,352.811,203.1,341.179,201.686,330.133Z" fill="#deddd3"/>
          <path id="Trazado_191454" data-name="Trazado 191454" d="M215.559,323.2s-3.34-4.238-8.221-1.926-7.835,9.89-9.119,16.7-.514,14.9,1.67,16.44c0,0,7.835,2.827,11.688,2.441,0,0,2.184.257,3.211-3.6S221.467,331.547,215.559,323.2Z" fill="#f5f3e8"/>
          <path id="Trazado_191455" data-name="Trazado 191455" d="M215.95,323.8a19.334,19.334,0,0,1,1.566,8.8c-.2,4.587-1.467,8.608-2.311,13.106-.558,2.976-1.027,8.068-3.692,10.157a5.568,5.568,0,0,1-1.849.965,10.366,10.366,0,0,0,1.913.02s2.184.257,3.211-3.6C215.792,349.49,221.2,332.382,215.95,323.8Z" fill="#deddd3"/>
          <path id="Trazado_191456" data-name="Trazado 191456" d="M237.781,326.28s-4.368-3.853-11.561,1.156-8.735,11-10.661,19.652-1.027,10.148.9,11.431,17.726,5.781,21.964,3.854,4.624-5.394,5.909-12.331C244.331,350.042,249.212,331.774,237.781,326.28Z" fill="#f5f3e8"/>
          <path id="Trazado_191457" data-name="Trazado 191457" d="M359.806,368.555a6.748,6.748,0,0,0-4.626-2.456c-3.6-.257-10.408,1.388-12.011,5s-7.256,15.425-5.328,18.251,5.651,5.139,11.3,4.625,11.174-4.625,13.23-11.69a13.929,13.929,0,0,0-2.568-13.727Z" fill="#eae8de"/>
          <path id="Trazado_191458" data-name="Trazado 191458" d="M340.077,383.4a27.41,27.41,0,0,0,2.83-5.945c.607-1.874.564-3.783.967-5.691a6.1,6.1,0,0,1,2.873-3.913,7.255,7.255,0,0,0-3.578,3.245c-1.6,3.608-7.256,15.425-5.328,18.251a9.642,9.642,0,0,0,.652.846C337.878,387.617,338.544,385.885,340.077,383.4Z" fill="#cbcac2" opacity="0.7" style="mix-blend-mode: multiply;isolation: isolate"/>
          <path id="Trazado_191459" data-name="Trazado 191459" d="M339.382,363.194s-1.285-1.977-4.495-1.206-8.023,5.289-9.237,9.108-6.068,12.343.622,15.939,11.955.513,14.909-6.808S344.005,367.353,339.382,363.194Z" fill="#eae8de"/>
          <path id="Trazado_191460" data-name="Trazado 191460" d="M323.839,376.4a29.83,29.83,0,0,1,3.683-8.1c2.115-3.138,5.615-5.914,9.423-6.458a5.582,5.582,0,0,0-2.058.137c-3.212.77-8.023,5.289-9.237,9.108-.583,1.83-2,4.738-2.579,7.668C323.322,377.97,323.6,377.184,323.839,376.4Z" fill="#cbcac2" style="mix-blend-mode: multiply;isolation: isolate"/>
          <path id="Trazado_191461" data-name="Trazado 191461" d="M324.353,357.708a4.99,4.99,0,0,0-4.88-1.886c-3.083.643-12.174,7.189-14.119,10.467s-1.424,16.121,5.9,19.59c0,0,3.852,1.927,6.808-1.156s7.193-9.12,7.963-15.8S325.638,360.363,324.353,357.708Z" fill="#eae8de"/>
          <path id="Trazado_191462" data-name="Trazado 191462" d="M309.039,363.173c2.616-1.937,5.176-4.025,7.841-5.885a12.933,12.933,0,0,1,2.612-1.469l-.019,0c-3.083.643-12.174,7.189-14.119,10.467a6.773,6.773,0,0,0-.716,2.165C305.452,366.127,306.989,364.692,309.039,363.173Z" fill="#cbcac2" opacity="0.7" style="mix-blend-mode: multiply;isolation: isolate"/>
          <path id="Trazado_191463" data-name="Trazado 191463" d="M304.83,349.773a8.747,8.747,0,0,0-10.134-.5c-5.409,3.469-8.153,9.368-8.9,15.282s.666,12.078,4.648,13.619,9.377-1.669,15.156-12.33S309.068,352.586,304.83,349.773Z" fill="#f5f3e8"/>
          <path id="Trazado_191464" data-name="Trazado 191464" d="M281.324,342.464s-3.34-2.226-7.321,1.391-9.763,12.353-8.735,20.7c0,0-.257,5.653,4.881,7.579s11.432,2.055,13.23,0,3.6-13.1,3.468-16.826S286.847,344.776,281.324,342.464Z" fill="#f5f3e8"/>
        </g>
        <g id="Grupo_157683" data-name="Grupo 157683">
          <path id="Trazado_191465" data-name="Trazado 191465" d="M242.354,324.192a10.341,10.341,0,0,0-8.14-4.253,19.323,19.323,0,0,0-5.368,1.244c-1.714.591-7.175,5.4-8.385,1.876-.009-.026-.045-.008-.043.015.249,2.754,2.263,2.64,4.531,1.93,5.4-1.691,11.791-4.2,17.031-.445C242.188,324.707,242.5,324.4,242.354,324.192Z" fill="#f19899" opacity="0.7" style="mix-blend-mode: screen;isolation: isolate"/>
          <path id="Trazado_191466" data-name="Trazado 191466" d="M213.134,318.878c-.811-.554-1.728-1.789-2.706-2.01a7.831,7.831,0,0,0-3.822.173,7.707,7.707,0,0,0-2.994,1.289c-1.035.825-2.522,3.279-4.094,2.279a.026.026,0,0,0-.034.034c.7,1.316,1.712,2.852,3.35,1.515a10.518,10.518,0,0,1,4.649-2.64,15.132,15.132,0,0,1,5.284.1C213.1,319.657,213.466,319.1,213.134,318.878Z" fill="#f19899" opacity="0.7" style="mix-blend-mode: screen;isolation: isolate"/>
          <path id="Trazado_191467" data-name="Trazado 191467" d="M266.228,333.865c-1.838-3.52-3.977-4.921-8-5.121-3.235-.158-5.593,1.914-7.694,3.942-.12.115-.126.361.1.333,1.853-.238,3.668-1.524,5.478-2.052,3.9-1.137,6.755,1.258,9.547,3.467C265.988,334.7,266.4,334.192,266.228,333.865Z" fill="#f19899" opacity="0.7" style="mix-blend-mode: screen;isolation: isolate"/>
          <path id="Trazado_191468" data-name="Trazado 191468" d="M288.331,344.133c-1.233-2.739-2.527-4.86-5.31-6.236-2.347-1.158-4.558.094-6.587,1.2-.027.015-.034.073.009.063,2.662-.574,4.463-.5,6.753,1.09,1.746,1.215,2.946,3.078,4.541,4.471C288.085,345.022,288.478,344.458,288.331,344.133Z" fill="#f19899" opacity="0.5" style="mix-blend-mode: screen;isolation: isolate"/>
          <path id="Trazado_191469" data-name="Trazado 191469" d="M312.526,352.013c-.82-2.336-2.461-3.036-4.326-4.319-.041-.029-.09.026-.069.065.845,1.557,1.838,2.735,2.339,4.509a6.621,6.621,0,0,1,.46,2.72,15,15,0,0,0-.3,2.578.34.34,0,0,0,.632.141C312.6,355.833,313.334,354.309,312.526,352.013Z" fill="#f19899" opacity="0.5" style="mix-blend-mode: screen;isolation: isolate"/>
          <path id="Trazado_191470" data-name="Trazado 191470" d="M330.58,361.852c-.425-.4-.968-.335-1.313-.859a7.35,7.35,0,0,1-.586-2.1,4.945,4.945,0,0,0-.949-1.89c-.282-.286-.568-.554-.87-.816-.386-.334-.8-.329-1.2-.646-.028-.022-.07.021-.051.05.247.381.624.573.881.961a4.708,4.708,0,0,1,.716,2.027,18.443,18.443,0,0,0,.4,2.775c.389,1.3,1.892,2.429,2.98,1.158A.475.475,0,0,0,330.58,361.852Z" fill="#f19899" opacity="0.5" style="mix-blend-mode: screen;isolation: isolate"/>
          <path id="Trazado_191471" data-name="Trazado 191471" d="M345.645,365.894c-.64-.321-1.211-.366-1.68-.971A12.716,12.716,0,0,1,342.9,362.9a5.72,5.72,0,0,0-4.026-2.732c-.019-.006-.047.025-.026.039,1.91,1.23,2.536,2.992,3.453,4.946.61,1.3,1.92,2.575,3.349,1.569A.487.487,0,0,0,345.645,365.894Z" fill="#f19899" opacity="0.5" style="mix-blend-mode: screen;isolation: isolate"/>
          <path id="Trazado_191472" data-name="Trazado 191472" d="M366.437,371.194a15.652,15.652,0,0,1-2.141-1.151c-.522-.412-.807-1.279-1.215-1.808a5.717,5.717,0,0,0-3.244-2.2c-.071-.016-.145.1-.064.129a4.251,4.251,0,0,1,2.241,2.005c.444.758.465,1.666.834,2.451a2.816,2.816,0,0,0,3.494,1.408A.467.467,0,0,0,366.437,371.194Z" fill="#f19899" opacity="0.5" style="mix-blend-mode: screen;isolation: isolate"/>
          <path id="Trazado_191473" data-name="Trazado 191473" d="M376.5,377.236a4.65,4.65,0,0,0-.448-1.343c-.23-.483-.72-.669-.948-1.152-.039-.083-.171.005-.163.076a1.214,1.214,0,0,0,.2.655,4.413,4.413,0,0,1,.41,1.632c.13,1.138-.257,2.35.094,3.445.106.335.54.219.659-.042A5.7,5.7,0,0,0,376.5,377.236Z" fill="#f19899" opacity="0.5" style="mix-blend-mode: screen;isolation: isolate"/>
          <path id="Trazado_191474" data-name="Trazado 191474" d="M224.644,287.232c-4.693-1.482-8.385-6.772-13.672-5.653-4.064.861-7.74,6.957-8.632,10.659-.016.068.077.077.1.022,1.73-4.036,6.6-9.055,11.211-8.678,3.936.323,7.012,3.211,10.8,4.035C224.669,287.664,224.889,287.309,224.644,287.232Z" fill="#f19899" opacity="0.7" style="mix-blend-mode: screen;isolation: isolate"/>
        </g>
        <path id="Trazado_191475" data-name="Trazado 191475" d="M235.1,355.713c1.113-4.566,2.465-9.016,2.929-13.722.367-3.726,1.222-9-1.352-12.183a6.855,6.855,0,0,0-7.467-2.565,9.629,9.629,0,0,0-1.669.835,20.783,20.783,0,0,0-9.324,13.708c-1.37,6.233-3.008,14.044-1.177,15.1a50.03,50.03,0,0,0,13.575,3.909C233.381,360.161,234.445,358.377,235.1,355.713Z" fill="#fff"/>
        <path id="Trazado_191476" data-name="Trazado 191476" d="M207.9,322.008s-4.175,1.221-6.24,6.728a44.374,44.374,0,0,0-3.029,13.05c-.385,6.812,0,10.761,1.927,11.821s6.647,2.215,8.381,1.348,2.7-7.995,3.083-11.56S215.545,319.6,207.9,322.008Z" fill="#fff"/>
        <path id="Trazado_191477" data-name="Trazado 191477" d="M196.953,323.8s-1.631-3.642-3.463-2.252-4.134,7.3-4.519,14.36-.549,12.157,2.23,13.979,4.4,1.178,4.4,1.178-.56-11.34,1.348-18.193S197.767,325.167,196.953,323.8Z" fill="#fff"/>
        <path id="Trazado_191478" data-name="Trazado 191478" d="M257.112,334.123s-5.082-.8-8.7,7-5.175,17.226-4.212,19.047,2.89,4.132,8.382,4.9,7.881-4.8,8.805-9.675S263.6,335.225,257.112,334.123Z" fill="#fff"/>
        <path id="Trazado_191479" data-name="Trazado 191479" d="M278.979,343.2s-2.023-1.349-5.394,2.505-6.092,7.817-7.477,13.59,1.085,10.694,5.1,11.8c0,0,5.991,1.979,6.3,0S284.567,344.358,278.979,343.2Z" fill="#fff"/>
        <path id="Trazado_191480" data-name="Trazado 191480" d="M305.279,351.488s-4.527-3.95-7.947-2.409-8.141,7.226-9.49,12.235-1.194,12.558,1.06,14.818a1.672,1.672,0,0,0,1.927.628C292.081,376.342,309.225,354.876,305.279,351.488Z" fill="#fff"/>
        <path id="Trazado_191481" data-name="Trazado 191481" d="M319.492,358.809s-.052-.675-1.689,0-10.4,5.08-10.6,9.042-.261,12.2,3.289,15.114,4.092,1.772,6.519-2.907S323.107,361.025,319.492,358.809Z" fill="#fff"/>
        <path id="Trazado_191482" data-name="Trazado 191482" d="M337.549,363.932c-.668-1.612-3.165.261-3.9.728a12.551,12.551,0,0,0-3.829,4.021,19.272,19.272,0,0,0-1.647,2.027,21.035,21.035,0,0,0-3.067,8.909c-.3,3.4.367,5.566,3.6,7.005,1.77.788,3.768,1.033,4.832-.733C336.987,380.169,340.227,370.4,337.549,363.932Z" fill="#fff"/>
        <path id="Trazado_191483" data-name="Trazado 191483" d="M357.334,372.506c-.5-6.028-5.435-5.1-8.53-2.11-3.043,2.715-3.714,8.109-5.723,11.928-1,1.911-3.993,5.736-2.5,8.072,1.03,1.605,6.141,2.6,7.785,1.761C354.648,388.956,357.881,379.127,357.334,372.506Z" fill="#fff"/>
        <path id="Trazado_191484" data-name="Trazado 191484" d="M371.358,377.419c-.085-2.974-3.3-2.8-5.084-1.474-2.334,1.73-2.341,5.117-2.748,8.02a21.717,21.717,0,0,1-1.584,3.955c-.484.895-1.728,1.665-1.365,2.766a.415.415,0,0,0,.369.3C368.615,392.021,371.544,383.862,371.358,377.419Z" fill="#fff"/>
      </g>
    </g>
  </g>
</svg>
