<svg xmlns="http://www.w3.org/2000/svg" width="49" height="68.738" viewBox="0 0 49 68.738">
  <g id="corona-dental" transform="translate(-73.51)">
    <path id="Trazado_191808" data-name="Trazado 191808" d="M118.156,193.478q.208-.493.4-.991a2.367,2.367,0,0,0-2.193-3.194H106.6v-1.924a2.352,2.352,0,0,0-2.349-2.349H91.768a2.352,2.352,0,0,0-2.349,2.349v1.924h-9.76a2.367,2.367,0,0,0-2.193,3.194q.19.5.4.991a4.368,4.368,0,0,0-4.354,4.363v20.809a1.007,1.007,0,0,0,2.014,0V197.841a2.352,2.352,0,0,1,2.349-2.349h.933c.1.187.194.374.294.558a21.276,21.276,0,0,1,2.3,13.422l-.9,5.654a6.234,6.234,0,0,0,11.893,3.421l3.945-9.272a1.834,1.834,0,0,1,3.353,0l3.945,9.272a6.234,6.234,0,0,0,11.893-3.421l-.9-5.654a21.279,21.279,0,0,1,2.3-13.422q.15-.277.294-.558h.933a2.352,2.352,0,0,1,2.349,2.349v26.715a2.352,2.352,0,0,1-2.349,2.349H77.873a2.352,2.352,0,0,1-2.349-2.349v-1.208a1.007,1.007,0,1,0-2.014,0v1.208a4.368,4.368,0,0,0,4.363,4.363h40.274a4.368,4.368,0,0,0,4.363-4.363V197.841a4.367,4.367,0,0,0-4.354-4.363Zm-26.724-6.108a.336.336,0,0,1,.336-.336h12.485a.336.336,0,0,1,.336.336v1.924H91.432v-1.924Zm21.2,22.419.9,5.654a4.22,4.22,0,0,1-8.051,2.315l-3.945-9.272a3.86,3.86,0,0,0-7.059,0l-3.945,9.272a4.22,4.22,0,0,1-8.051-2.315l.9-5.654a23.3,23.3,0,0,0-2.515-14.7,27.463,27.463,0,0,1-1.523-3.318c-.063-.28.03-.422.31-.464h36.7c.281.042.373.184.31.464a27.454,27.454,0,0,1-1.522,3.318A23.3,23.3,0,0,0,112.635,209.788Z" transform="translate(0 -160.18)" fill="#12263f"/>
    <path id="Trazado_191809" data-name="Trazado 191809" d="M91.721,22.88h32.051a1.007,1.007,0,1,0,0-2.014H91.721a1.008,1.008,0,0,1-1.007-1.007V9.522a7.506,7.506,0,0,1,11.11-6.582L106.5,5.5a9.829,9.829,0,0,0,9.326,0L120.5,2.94a7.506,7.506,0,0,1,11.11,6.582V19.859a1.008,1.008,0,0,1-1.007,1.007H128.47a1.007,1.007,0,1,0,0,2.014H130.6a3.024,3.024,0,0,0,3.021-3.021V9.522a9.52,9.52,0,0,0-14.091-8.349l-4.675,2.559a7.809,7.809,0,0,1-7.391,0l-4.674-2.559A9.519,9.519,0,0,0,88.7,9.522V19.859a3.024,3.024,0,0,0,3.021,3.02Z" transform="translate(-13.151)" fill="#12263f"/>
  </g>
</svg>
